<?xml version="1.0" standalone="no"?>
<!DOCTYPE svg PUBLIC "-//W3C//DTD SVG 20010904//EN"
 "http://www.w3.org/TR/2001/REC-SVG-20010904/DTD/svg10.dtd">
<svg version="1.0" xmlns="http://www.w3.org/2000/svg"
 width="1683.000000pt" height="2658.000000pt" viewBox="0 0 1683.000000 2658.000000"
 preserveAspectRatio="xMidYMid meet">

<g transform="translate(0.000000,2658.000000) scale(0.100000,-0.100000)"
fill="#000000" stroke="none">
<path d="M7474 26555 c-7 -28 1 -44 15 -29 15 15 17 47 4 51 -7 3 -15 -7 -19
-22z"/>
<path d="M8036 26548 c-10 -15 -16 -33 -14 -40 3 -8 11 -2 22 14 10 15 16 33
14 40 -3 8 -11 2 -22 -14z"/>
<path d="M7364 26485 c-40 -57 -70 -151 -109 -335 -33 -153 -38 -163 -57 -125
l-15 28 -6 -48 c-4 -26 -12 -54 -18 -61 -13 -16 -49 -19 -49 -4 0 24 -32 6
-56 -31 -19 -30 -28 -38 -34 -29 -6 10 -16 7 -40 -13 -35 -30 -84 -36 -94 -11
-3 9 -6 44 -6 79 0 35 -4 66 -10 70 -22 14 -70 -114 -70 -190 0 -22 -5 -46
-12 -53 -17 -17 -53 -15 -68 3 -7 8 -18 15 -24 15 -17 0 -66 -55 -115 -127
-47 -70 -60 -81 -72 -62 -6 9 -9 -4 -9 -36 0 -28 -5 -56 -11 -62 -6 -6 -24
-59 -39 -118 -16 -59 -32 -110 -35 -113 -13 -13 -3 111 27 320 17 126 28 231
24 235 -4 5 -14 0 -21 -10 -16 -22 -55 -163 -55 -198 0 -14 -5 -30 -10 -35 -6
-6 -15 -78 -20 -160 -18 -281 -39 -411 -71 -440 -10 -9 -19 -30 -19 -47 l0
-29 20 23 19 24 1 -23 c0 -29 -46 -117 -54 -103 -9 13 13 688 25 775 18 136
22 194 15 222 -10 37 -21 18 -30 -51 -4 -27 -13 -70 -21 -95 -32 -101 -49
-410 -24 -426 15 -9 5 -235 -16 -389 -9 -60 -19 -135 -22 -166 -6 -56 -5 -56
26 -67 26 -9 31 -15 26 -32 -8 -26 7 -26 30 0 10 11 25 20 33 20 12 0 14 -19
10 -109 -3 -92 -6 -113 -23 -131 l-20 -22 23 -15 c17 -12 22 -25 22 -60 0 -30
5 -45 15 -50 9 -3 19 -2 23 1 12 13 5 85 -12 111 -20 30 -14 45 19 45 33 0 48
-33 48 -103 0 -50 2 -56 14 -44 20 20 45 176 88 542 20 171 43 351 51 400 16
105 18 171 4 180 -21 13 -9 55 25 89 l35 35 0 -47 c0 -27 5 -53 10 -58 7 -7 6
-24 -5 -53 -20 -58 -42 -179 -60 -340 -9 -73 -24 -189 -35 -256 -20 -123 -30
-318 -17 -332 16 -15 30 19 28 71 -1 49 1 57 23 72 34 22 42 69 22 135 -8 29
-13 56 -10 59 12 11 63 -61 69 -97 16 -104 21 -99 34 37 16 177 47 400 63 453
10 37 12 39 16 17 9 -56 -6 -276 -22 -319 -21 -55 -24 -268 -7 -546 6 -104 14
-302 18 -440 l7 -250 8 130 c19 342 40 654 54 790 49 503 57 622 58 855 1 181
-3 257 -13 292 -12 42 -12 50 3 73 35 54 97 16 111 -68 l8 -42 16 55 c22 72
45 74 49 5 5 -79 -6 -136 -29 -142 -10 -3 -19 -6 -19 -7 0 -30 -42 -292 -49
-304 -5 -9 -18 -17 -28 -17 -28 0 -27 -31 3 -58 30 -28 27 -57 -4 -57 -17 0
-21 -12 -30 -79 -11 -93 -4 -147 21 -145 11 1 18 -9 22 -30 7 -37 -10 -316
-27 -433 -9 -66 -9 -98 1 -159 11 -69 11 -77 -5 -95 -23 -25 -34 -174 -13
-167 8 2 23 21 33 42 15 31 20 69 24 185 5 110 8 135 13 101 4 -25 8 -72 8
-105 1 -33 4 -85 8 -115 5 -38 14 82 29 385 30 591 52 835 74 835 10 0 24
-716 17 -895 -3 -77 -2 -165 3 -195 4 -32 8 -43 9 -25 3 74 52 766 57 822 12
110 24 56 24 -100 -1 -134 -16 -539 -23 -591 -1 -10 3 -21 10 -23 16 -6 43 88
43 151 0 56 16 126 29 126 24 0 19 -262 -5 -291 -11 -13 -10 -18 8 -34 29 -24
9 -31 -31 -11 -19 10 -32 12 -36 6 -11 -17 -26 -549 -18 -650 4 -59 9 -85 13
-70 5 19 8 12 12 -30 8 -77 -1 -160 -18 -160 -16 0 -4 -42 13 -47 19 -7 25 31
38 257 8 124 14 227 15 230 0 3 6 -4 12 -15 21 -37 42 -1655 21 -1676 -8 -8
-14 -6 -22 10 -7 12 -18 21 -26 21 -17 0 -10 -28 34 -127 17 -39 31 -76 31
-82 0 -6 -15 -11 -34 -11 -26 0 -40 7 -57 28 l-22 27 6 -60 c4 -33 12 -78 19
-100 l12 -40 3 35 c15 169 41 69 92 -345 60 -488 125 -1104 118 -1111 -13 -14
-20 5 -27 78 -7 72 -22 118 -40 118 -16 0 -20 -55 -10 -150 15 -149 18 -140
-39 -140 -31 0 -53 5 -61 15 -7 8 -21 15 -31 15 -11 0 -19 7 -19 18 -1 15 -2
15 -15 -2 -14 -19 -15 -19 -36 0 -21 19 -21 19 -45 -10 -14 -15 -31 -26 -38
-23 -24 10 -58 118 -64 202 -3 44 -11 89 -18 100 -7 12 -15 77 -19 170 -7 173
-21 329 -36 432 -10 62 -9 74 4 88 19 18 19 20 -34 293 -21 112 -39 216 -39
230 0 41 -11 72 -25 72 -17 0 -25 23 -25 67 0 27 5 36 21 40 18 5 19 11 13 47
-4 22 -10 79 -13 126 l-7 85 -8 -50 c-8 -54 -26 -96 -26 -62 0 10 -8 17 -19
17 -12 0 -23 11 -29 28 -15 39 -14 13 3 -156 39 -375 116 -946 170 -1257 19
-110 40 -253 46 -318 14 -137 10 -146 -62 -154 -64 -7 -94 9 -122 63 l-24 47
-7 -36 c-9 -46 -25 -56 -47 -28 -20 25 -27 58 -63 303 -31 208 -33 213 -53
196 -14 -11 -15 -5 -9 47 3 33 9 91 12 130 8 81 16 69 34 -51 19 -132 51 -278
62 -289 7 -7 9 2 4 30 -6 35 -24 310 -26 405 l-1 35 -14 -25 c-13 -25 -14 -24
-17 20 -4 44 -4 45 -16 18 -6 -16 -16 -28 -21 -28 -16 0 -27 67 -82 515 -16
138 -34 264 -38 280 l-8 30 -13 -30 c-11 -27 -13 -28 -20 -10 -9 25 -28 198
-40 374 -8 130 -17 160 -39 147 -15 -10 -13 -94 4 -256 8 -74 14 -153 14 -175
0 -37 -1 -38 -10 -15 -20 48 -38 258 -49 555 -18 527 -30 778 -35 783 -14 14
-17 -28 -25 -300 -9 -287 -12 -330 -33 -356 -7 -9 -5 -16 6 -25 23 -17 36 -89
44 -240 5 -108 3 -143 -11 -191 -18 -61 -16 -77 8 -57 19 16 26 -5 26 -83 0
-34 4 -97 10 -141 5 -44 19 -195 30 -335 22 -281 34 -395 56 -515 8 -44 32
-213 54 -375 22 -162 43 -317 46 -343 l7 -49 -134 6 c-74 3 -219 8 -324 11
-276 8 -714 31 -1250 65 -931 59 -1299 74 -2220 90 -988 17 -1279 29 -1349 56
-15 6 -17 3 -11 -14 6 -20 3 -22 -37 -22 -24 0 -140 16 -258 35 -220 37 -409
53 -472 41 -36 -6 -88 -48 -88 -70 0 -7 17 -22 38 -34 l37 -22 -36 0 c-21 0
-42 -7 -50 -16 -11 -14 -10 -18 10 -33 l23 -18 -47 -53 -47 -53 6 -76 7 -76
-33 -27 -33 -27 25 -46 c32 -60 70 -92 123 -105 117 -28 155 -52 100 -63 -15
-3 -47 -22 -70 -42 -68 -58 -102 -68 -210 -60 -51 4 -93 5 -93 2 0 -4 11 -23
25 -43 14 -20 25 -45 25 -55 0 -9 13 -28 30 -42 l30 -25 -43 -7 c-23 -4 -54
-14 -69 -21 -27 -14 -46 -54 -34 -73 4 -5 50 -24 103 -41 151 -49 209 -86 201
-127 -3 -16 -16 -18 -144 -18 -140 0 -141 0 -183 -30 l-43 -29 28 -24 c50 -40
79 -51 200 -73 66 -11 120 -22 122 -24 2 -2 -22 -14 -52 -28 -100 -46 -89 -82
42 -135 l44 -17 -46 -33 c-62 -45 -60 -82 5 -82 54 0 104 -54 79 -85 -10 -13
-17 -12 -47 0 -78 33 -270 37 -306 7 -37 -31 -19 -83 33 -97 l25 -6 -25 20
c-14 11 -22 23 -18 27 16 16 356 -52 441 -88 84 -36 62 -46 -114 -50 -77 -2
-121 -7 -132 -16 -13 -11 -25 -11 -68 2 -74 22 -110 21 -116 -4 -5 -17 -11
-19 -44 -14 -57 9 -50 -12 14 -40 28 -13 153 -62 277 -110 221 -86 270 -109
257 -122 -4 -4 -41 -9 -82 -12 -42 -3 -73 -8 -68 -13 11 -11 127 -29 189 -29
105 0 325 -51 824 -190 197 -55 274 -70 545 -105 368 -47 806 -86 1185 -105
245 -12 239 -12 220 0 -33 22 -113 40 -126 29 -10 -8 -37 -8 -96 0 -46 6 -189
17 -318 26 -338 23 -796 78 -817 99 -10 10 68 39 118 44 38 3 49 1 60 -15 11
-16 30 -21 99 -27 47 -3 106 -9 131 -12 34 -4 48 -2 58 10 12 14 17 13 52 -5
54 -27 327 -73 370 -62 51 14 45 30 -13 37 -61 8 -78 19 -71 46 6 24 22 26 37
4 8 -11 39 -19 97 -25 132 -15 256 -38 307 -58 79 -31 462 -67 462 -43 0 5 -7
12 -15 16 -8 3 -15 17 -15 31 0 22 4 25 35 25 28 0 35 -4 35 -20 0 -26 16 -26
30 0 6 11 15 18 20 15 5 -3 18 0 28 6 15 10 33 5 98 -24 43 -19 94 -38 112
-42 18 -4 46 -18 62 -32 27 -22 34 -24 58 -14 22 9 37 8 71 -4 61 -21 116 -19
138 4 12 12 35 21 63 23 36 2 45 7 44 21 -3 31 23 18 66 -33 32 -39 55 -54
103 -72 33 -12 75 -34 92 -49 34 -29 85 -46 85 -28 0 6 -14 27 -31 46 -16 19
-28 40 -26 46 7 22 98 19 171 -5 62 -20 91 -23 222 -23 134 0 154 2 173 19 15
14 28 17 53 11 18 -3 48 -8 66 -9 18 -2 47 -10 65 -19 17 -9 49 -19 69 -22 43
-7 121 -62 126 -89 4 -17 -4 -18 -121 -11 -130 8 -147 3 -122 -31 11 -16 27
-19 112 -20 54 0 116 -5 138 -12 22 -6 126 -17 230 -23 105 -6 201 -14 215
-18 20 -6 28 -21 46 -87 l23 -79 -1 57 c-1 32 4 64 11 72 33 39 126 23 126
-22 0 -12 6 -27 14 -31 8 -5 16 -32 19 -62 l5 -53 17 45 c10 24 21 64 25 89 8
52 20 70 46 70 12 0 19 -7 19 -20 0 -12 9 -33 19 -48 33 -47 62 -298 81 -712
6 -124 15 -281 21 -349 7 -81 7 -127 0 -134 -14 -14 -31 55 -31 126 0 35 -4
57 -11 57 -16 0 -7 -337 9 -365 9 -16 11 -6 12 57 0 74 10 102 26 76 5 -7 11
-62 15 -123 16 -242 50 -643 59 -700 5 -33 14 -116 20 -185 6 -69 14 -148 19
-175 5 -28 14 -84 21 -125 18 -120 24 -143 36 -147 19 -6 24 24 14 79 -5 29
-21 175 -35 323 -14 149 -41 423 -60 610 -75 731 -89 983 -83 1425 4 287 7
340 22 367 18 36 65 66 84 54 7 -4 15 -50 19 -117 5 -70 9 -96 13 -74 4 27 10
35 25 35 16 0 23 11 33 55 28 114 53 105 59 -20 2 -52 8 -99 13 -104 12 -12
30 34 31 82 1 20 4 50 8 67 l6 30 18 -45 c17 -43 19 -44 33 -25 40 54 46 59
55 43 14 -25 37 -145 63 -331 37 -253 50 -407 37 -420 -8 -8 -11 -1 -11 25 0
45 -15 88 -31 88 -8 0 -10 -16 -5 -52 16 -132 27 -259 41 -459 15 -221 21
-255 49 -278 15 -13 15 -16 -5 -37 -26 -27 -25 -34 20 -364 23 -163 34 -295
41 -480 13 -333 33 -629 75 -1150 50 -621 60 -709 72 -696 2 2 8 111 13 243 9
227 21 320 40 308 9 -6 26 -104 35 -210 3 -38 10 -74 15 -79 11 -11 29 56 31
114 2 43 2 43 9 -15 4 -33 8 -93 9 -132 1 -77 13 -96 26 -40 4 17 10 208 14
422 4 290 9 396 19 413 17 29 32 20 32 -20 0 -21 6 -31 19 -35 20 -5 24 -82
37 -727 7 -304 6 -329 -9 -323 -20 8 -20 21 -7 -216 5 -98 13 -183 16 -189 15
-25 23 32 23 182 1 176 17 584 27 677 3 35 10 61 14 58 4 -3 11 -36 15 -73 8
-79 19 -106 35 -82 5 8 10 35 10 60 0 59 9 90 26 90 16 0 20 19 29 112 9 104
21 125 28 53 43 -396 52 -3073 10 -3032 -17 17 -36 346 -46 782 -7 275 -15
492 -19 482 -5 -10 -8 -30 -8 -44 0 -16 -7 -27 -20 -30 -20 -5 -20 -5 0 -30
27 -35 26 -53 -2 -45 -20 5 -21 3 -10 -10 28 -35 23 -493 -7 -545 -13 -24 -19
32 -26 247 -3 102 -9 199 -12 215 l-7 30 -7 -40 c-4 -22 -8 -119 -9 -215 -1
-96 -5 -184 -9 -195 -8 -19 -8 -19 -21 4 -7 14 -18 56 -25 95 l-12 71 -7 -75
c-12 -128 -26 -194 -51 -230 -13 -20 -25 -57 -28 -87 -6 -57 -44 -153 -60
-153 -6 0 -7 30 -3 83 11 146 16 419 6 357 -18 -107 -40 -376 -39 -475 0 -172
-48 -446 -107 -598 -64 -167 -80 -328 -89 -887 -5 -342 -15 -484 -35 -504 -21
-21 -23 11 -11 191 7 104 11 224 9 268 l-3 80 -23 -35 c-42 -65 -45 -99 -38
-373 7 -255 7 -259 -13 -252 -18 5 -20 1 -23 -42 -3 -47 -3 -48 -17 -22 -7 15
-25 32 -38 38 -24 11 -25 15 -19 58 3 26 17 66 31 89 39 67 29 130 -11 69 -25
-38 -36 -31 -29 19 8 48 -1 90 -16 81 -5 -4 -9 -15 -9 -26 0 -10 -16 -37 -36
-58 -19 -22 -39 -55 -44 -73 -17 -64 -57 -782 -48 -873 l3 -40 20 38 c21 41
35 48 35 17 0 -42 19 -18 30 38 6 31 14 71 19 87 9 30 9 30 11 -10 1 -22 1
-70 0 -107 -2 -77 8 -140 21 -132 5 3 9 34 9 69 0 84 16 92 23 12 5 -49 2 -70
-13 -102 -14 -29 -16 -41 -8 -46 16 -10 23 -131 9 -157 -6 -12 -15 -126 -21
-266 -7 -184 -13 -254 -25 -283 -9 -21 -19 -65 -22 -99 -5 -56 -4 -61 16 -67
17 -4 21 -13 21 -46 0 -22 -5 -60 -12 -84 -9 -36 -8 -60 5 -128 20 -104 21
-173 13 -774 -7 -513 1 -583 29 -254 8 100 18 198 21 220 13 80 24 23 24 -124
0 -161 14 -415 25 -459 5 -21 0 -32 -29 -62 -22 -21 -36 -45 -36 -60 0 -24 -1
-24 -29 -10 -29 14 -41 45 -41 102 0 52 -8 14 -19 -88 -17 -164 -17 -305 -1
-325 24 -29 42 4 49 91 l6 79 22 -60 c12 -33 29 -80 39 -105 9 -25 19 -90 23
-145 l7 -100 24 53 c12 28 27 52 33 52 15 0 1 -237 -23 -365 -11 -61 -23 -181
-27 -268 -5 -138 -4 -157 9 -152 16 6 27 -26 29 -89 2 -44 17 53 19 124 1 57
9 52 26 -15 7 -28 8 -26 15 23 9 68 27 112 46 112 12 0 14 -7 9 -27 -4 -16 -9
-123 -13 -240 -5 -182 -4 -217 11 -252 10 -26 16 -71 16 -119 1 -42 4 -120 9
-172 5 -62 4 -129 -3 -193 -12 -99 -10 -167 4 -167 4 0 11 10 15 23 3 12 8 18
10 12 8 -20 45 -715 55 -1025 12 -392 12 -990 -1 -855 -5 49 -11 94 -14 100
-9 17 5 -794 14 -818 8 -19 11 -15 25 33 25 88 46 198 46 245 0 24 5 56 11 72
10 26 11 26 21 9 6 -10 13 -50 17 -90 l7 -71 7 55 c13 88 27 134 39 122 7 -7
2 -86 -17 -251 -26 -226 -27 -312 -4 -253 13 33 43 269 79 612 35 343 51 455
61 439 3 -6 4 -69 1 -140 -3 -85 -1 -129 5 -129 23 0 52 107 63 234 4 54 13
103 19 109 25 25 7 -432 -23 -581 -12 -59 -12 -62 6 -56 23 7 23 -13 3 -80
-20 -66 -20 -87 1 -58 26 37 34 80 43 219 14 209 31 202 56 -25 8 -74 20 -153
26 -174 10 -40 35 -60 49 -39 6 11 22 593 24 911 1 74 -4 176 -11 225 -20 143
-76 1231 -65 1249 9 16 41 -77 41 -122 1 -39 3 -43 21 -37 11 3 20 3 20 -2 0
-4 7 -84 15 -178 29 -330 82 -657 116 -711 10 -17 19 -43 19 -58 0 -14 4 -26
9 -26 17 0 24 232 18 575 -4 228 -2 354 5 383 8 32 8 46 -1 55 -26 26 -6 254
26 304 12 18 17 80 24 310 6 175 14 298 21 313 11 25 11 24 19 -15 23 -122 40
-765 24 -912 -5 -41 -3 -69 6 -84 l12 -23 9 24 c5 14 13 80 18 148 6 95 12
126 24 135 32 24 46 228 58 872 12 653 2 1472 -18 1509 -9 15 -12 5 -16 -49
-6 -69 -19 -97 -34 -73 -13 20 -6 476 10 618 11 100 14 113 15 65 3 -117 12
-167 34 -173 17 -4 18 -11 13 -48 -6 -43 6 -68 18 -37 4 9 9 49 13 90 3 40 8
72 10 70 2 -2 10 -89 18 -193 19 -232 28 -290 45 -279 18 11 22 -72 17 -357
-5 -313 -16 -398 -58 -480 -20 -38 -24 -63 -30 -223 -6 -177 -3 -459 7 -523 5
-33 38 -72 60 -72 8 0 15 22 19 58 9 82 14 102 26 102 7 0 9 -13 4 -37 -5 -28
-4 -35 5 -27 7 7 12 65 13 156 3 159 10 181 56 176 23 -3 26 1 32 37 4 22 10
90 14 150 6 100 4 125 -25 265 -26 128 -30 169 -25 235 16 232 16 265 -4 425
-12 88 -21 175 -21 191 0 40 21 33 36 -12 l12 -34 7 37 c4 21 6 90 3 154 -3
97 -6 117 -21 125 -26 15 -24 85 3 99 15 8 19 17 14 32 -4 15 1 26 20 42 24
19 28 32 41 141 56 449 90 683 105 720 l12 30 9 -24 c5 -13 11 -22 14 -20 8 9
35 239 35 300 0 33 4 59 10 59 16 0 30 -46 30 -101 0 -27 4 -49 9 -49 11 0 28
-44 37 -95 4 -22 16 -57 27 -78 16 -30 21 -65 25 -175 4 -98 8 -128 14 -107
14 53 37 302 49 540 14 290 8 968 -9 1008 -11 27 -11 28 10 22 17 -6 20 -4 15
10 -4 9 -7 19 -7 21 0 3 -11 9 -24 14 -18 7 -29 25 -46 82 -23 77 -63 162 -80
173 -6 4 -18 1 -26 -6 -8 -6 -17 -9 -20 -6 -11 10 -16 348 -7 422 l8 70 34
-83 c18 -45 36 -103 39 -127 2 -25 8 -43 12 -40 4 2 13 33 19 67 20 108 23
120 27 116 9 -9 34 -195 44 -323 18 -228 32 -241 49 -44 32 361 55 1288 56
2239 0 815 -1 890 -18 950 -55 205 -105 365 -113 362 -19 -5 -24 -60 -18 -168
3 -61 3 -121 -1 -133 -7 -23 -34 -28 -53 -9 -23 23 -23 -1 1 -113 22 -104 26
-114 45 -112 31 4 29 -41 -3 -72 -30 -31 -51 -32 -66 -3 -16 30 -6 925 15
1318 8 157 20 452 25 655 13 442 19 537 34 532 6 -2 15 -19 18 -37 4 -19 12
-36 18 -38 7 -2 18 -20 27 -40 13 -32 16 -34 29 -21 28 28 35 117 19 265 -16
159 -19 444 -5 444 18 0 23 -22 31 -141 5 -85 12 -124 23 -137 18 -20 37 -115
37 -186 0 -68 11 -127 21 -120 21 12 6 643 -26 1129 -41 617 -95 1026 -171
1294 -13 46 -24 97 -24 114 0 29 0 30 20 12 20 -18 20 -17 20 17 0 101 -76
454 -111 512 -13 23 -23 61 -27 103 -6 81 5 93 88 93 32 0 92 3 135 7 63 5 79
10 82 24 4 13 17 19 52 21 l46 3 0 40 0 40 87 6 c55 4 96 12 112 22 20 13 49
17 133 17 148 0 508 -27 531 -39 11 -6 22 -24 26 -41 8 -44 56 -61 186 -68 94
-4 108 -3 124 14 14 14 31 18 69 16 30 -1 59 4 72 12 12 8 39 18 60 22 35 6
37 8 20 20 -10 8 -39 14 -63 14 -37 0 -51 6 -82 34 -21 19 -36 37 -32 40 3 3
21 6 41 6 20 1 50 7 66 14 28 13 28 14 10 22 -11 4 -243 0 -515 -9 -272 -9
-511 -13 -530 -9 -32 8 -29 9 35 15 81 8 354 23 603 33 103 4 168 10 160 15
-7 5 -42 9 -78 9 -78 0 -140 16 -140 35 0 17 30 35 62 36 20 0 18 2 -9 12 -40
15 -60 34 -48 46 6 4 68 14 138 20 154 14 193 25 127 34 -208 29 -216 30 -185
38 73 19 696 69 1045 84 130 5 1160 35 1229 35 29 0 32 2 21 15 -11 13 45 15
491 15 277 0 585 -5 683 -10 99 -5 184 -6 190 -3 25 16 -59 25 -279 30 -132 3
-253 9 -270 13 -28 8 -27 8 15 10 25 1 59 6 75 10 27 7 24 8 -20 10 -41 2 -45
3 -25 10 14 4 97 9 185 9 221 2 649 19 775 32 58 5 111 16 120 23 11 10 78 15
255 20 414 11 692 37 813 75 31 9 76 31 99 48 23 17 56 36 73 43 16 7 30 16
30 21 0 11 11 12 -90 -6 -47 -8 -134 -14 -195 -14 -102 1 -106 2 -55 11 285
48 414 83 474 131 22 17 62 43 90 59 l51 29 -45 -7 c-74 -11 -165 -22 -168
-19 -1 1 22 14 52 29 30 15 70 41 88 58 l33 31 -25 9 -25 10 34 28 c19 16 78
48 132 70 53 23 105 48 116 56 17 13 17 14 -5 20 -14 4 -22 13 -20 23 5 27 87
60 193 76 101 16 148 35 87 35 -26 0 -37 6 -50 30 -20 36 -46 38 -165 15 -98
-19 -140 -19 -135 -2 4 12 48 29 124 47 27 6 43 17 46 28 4 12 34 30 89 52
141 56 135 58 -70 34 -131 -15 -163 -12 -147 15 4 6 27 16 52 22 24 6 44 15
44 20 0 5 -207 9 -472 9 -433 0 -1056 21 -1098 37 -38 15 183 37 490 48 91 4
197 11 235 16 39 5 180 20 315 34 311 32 414 49 520 85 47 15 105 31 130 35
25 4 60 16 78 27 19 12 73 34 120 50 l87 28 -78 -6 c-66 -5 -81 -4 -97 11 -11
10 -27 15 -37 11 -11 -3 -7 4 10 17 15 13 62 37 105 53 l77 29 -60 6 c-116 13
-304 10 -339 -5 -31 -13 -33 -13 -29 5 4 13 -5 24 -28 38 -40 25 -82 27 -99 6
-11 -13 -8 -16 19 -21 47 -10 48 -24 1 -24 -50 0 -110 24 -110 43 0 16 -21 27
-48 27 -8 0 -23 6 -31 14 -19 18 -113 30 -376 51 -220 18 -402 41 -442 56 -17
6 -36 6 -58 -2 -41 -15 -314 3 -477 31 -78 13 -202 23 -392 30 -153 6 -323 17
-379 26 -73 11 -132 13 -210 9 -171 -11 -297 22 -297 79 0 30 15 42 81 65 l54
20 -67 0 c-81 1 -115 -11 -128 -43 -13 -35 -54 -53 -155 -71 -150 -26 -275
-14 -283 28 -3 13 3 17 27 17 33 0 51 18 30 31 -11 6 -8 13 11 33 l23 26 -38
0 c-52 0 -151 -26 -257 -66 -79 -31 -168 -45 -168 -27 0 4 14 22 32 40 l32 33
-27 0 c-14 0 -66 -14 -114 -31 -160 -56 -155 -55 -191 -29 -25 19 -50 25 -109
30 -101 7 -107 25 -11 35 40 4 105 12 143 19 l70 13 -60 9 c-139 21 -1881 6
-3020 -26 -187 -5 -387 -11 -445 -12 l-105 -3 -17 50 c-12 34 -17 83 -18 155
-1 273 -127 1066 -198 1242 -17 42 -35 101 -41 132 -6 30 -22 73 -36 94 -69
104 -170 713 -193 1165 -6 113 -13 172 -22 180 -10 10 -11 -2 -6 -60 8 -77 -4
-97 -23 -42 -18 53 -14 149 9 192 11 20 20 52 20 69 -1 33 -1 33 -14 9 -7 -13
-16 -19 -19 -14 -10 17 -21 208 -13 238 6 23 9 25 23 13 14 -12 15 -8 9 36 -4
28 -9 221 -11 430 -2 210 -8 408 -14 441 -14 78 -14 1209 -1 1520 16 350 16
384 -3 402 -23 23 -43 10 -50 -34 -4 -21 -25 -75 -47 -121 -38 -80 -60 -97
-60 -47 0 36 -17 39 -25 5 -4 -16 -11 -30 -17 -30 -12 0 -1 71 18 119 18 43
18 46 -2 30 -24 -20 -40 -57 -69 -160 -15 -52 -35 -105 -44 -119 -10 -14 -22
-52 -26 -85 l-9 -60 -10 38 c-13 49 -26 47 -27 -5 -1 -42 -1 -42 -10 -13 -7
22 -5 42 7 74 12 33 15 59 10 109 -4 36 -11 72 -15 80 -11 20 -23 -86 -12
-107 7 -12 -1 -32 -28 -73 -21 -30 -41 -73 -44 -94 -4 -20 -22 -63 -42 -95
-21 -34 -39 -80 -44 -111 -5 -29 -12 -188 -15 -354 -5 -238 -12 -356 -36 -565
-35 -307 -48 -399 -60 -399 -28 0 -18 272 15 425 14 60 14 95 4 245 -6 102 -8
240 -5 330 4 85 8 183 9 217 1 59 2 61 18 47 16 -15 18 -13 24 18 10 56 1 271
-12 275 -6 2 -27 -10 -46 -26 -63 -56 -67 -49 -67 103 0 74 -3 141 -6 150 -12
32 -36 15 -65 -46 -32 -68 -31 -70 -13 47 4 24 -1 20 -24 -24 -54 -102 -49
-11 8 156 36 105 38 147 4 98z m806 -144 c0 -12 -29 -35 -36 -28 -11 10 5 37
21 37 8 0 15 -4 15 -9z m-40 -97 c0 -31 -23 -28 -28 4 -2 15 2 22 12 22 11 0
16 -9 16 -26z m-300 -355 c0 -24 -4 -38 -10 -34 -5 3 -10 13 -10 21 0 11 -6
13 -20 9 -13 -4 -20 -2 -20 7 0 19 21 38 42 38 14 0 18 -8 18 -41z m-270 -34
c0 -14 -4 -25 -10 -25 -5 0 -10 11 -10 25 0 14 5 25 10 25 6 0 10 -11 10 -25z
m182 -16 c16 -22 18 -78 24 -796 5 -529 4 -773 -3 -773 -15 0 -21 63 -38 395
-18 365 -25 454 -36 461 -13 8 -11 -430 3 -813 9 -261 9 -340 -1 -372 -6 -23
-16 -41 -21 -41 -13 0 -13 1625 0 1765 10 123 28 207 43 202 6 -2 19 -14 29
-28z m214 -86 c14 -15 12 -34 -11 -103 l-12 -35 -12 53 c-14 67 -14 97 1 147
l13 40 3 -44 c2 -24 10 -50 18 -58z m-1043 40 c-7 -2 -21 -2 -30 0 -10 3 -4 5
12 5 17 0 24 -2 18 -5z m897 -28 c0 -14 -4 -25 -10 -25 -5 0 -10 11 -10 25 0
14 5 25 10 25 6 0 10 -11 10 -25z m-619 -173 c-8 -31 -9 -23 -9 43 0 72 1 75
9 37 4 -25 4 -60 0 -80z m822 -49 c8 -85 7 -180 -2 -213 -7 -23 -8 -23 -14 -5
-9 31 -20 262 -13 274 15 24 23 8 29 -56z m-868 -19 c-4 -36 -13 -84 -21 -107
-14 -42 -14 -42 -10 38 4 76 18 135 32 135 3 0 3 -30 -1 -66z m-407 13 c3 -39
10 -45 31 -24 22 20 7 -92 -22 -159 -64 -152 -75 -175 -82 -182 -5 -4 -6 0 -2
9 3 10 9 77 12 150 5 87 12 142 21 156 8 13 12 33 8 47 -3 14 -3 30 1 36 13
21 30 4 33 -33z m1142 -47 c0 -10 -4 -22 -10 -25 -6 -4 -10 7 -10 25 0 18 4
29 10 25 6 -3 10 -15 10 -25z m-1340 -56 c-7 -21 -14 -78 -15 -128 -2 -50 -17
-158 -33 -241 -28 -144 -75 -448 -88 -568 -3 -31 -12 -64 -20 -72 -40 -39 -67
6 -36 58 27 44 72 318 72 435 0 39 -2 43 -20 37 -28 -9 -26 16 3 52 13 15 31
47 40 70 20 52 53 214 63 308 7 79 20 113 36 97 7 -7 6 -22 -2 -48z m1267
-121 c-2 -16 -4 -5 -4 22 0 28 2 40 4 28 2 -13 2 -35 0 -50z m262 -557 c5
-182 12 -339 16 -350 7 -16 9 -15 20 10 12 28 13 26 19 -36 3 -36 10 -375 16
-755 17 -1228 16 -1192 56 -1357 18 -79 34 -157 34 -174 0 -17 7 -48 15 -68 9
-20 20 -71 25 -112 5 -42 13 -81 17 -87 5 -7 8 -42 8 -78 0 -50 5 -72 18 -86
18 -21 23 -63 7 -63 -13 0 -28 30 -61 124 -15 45 -28 76 -28 69 -1 -11 24
-159 69 -418 12 -66 23 -171 25 -233 2 -62 15 -183 29 -270 14 -86 32 -205 41
-264 8 -61 26 -137 41 -174 14 -36 29 -84 31 -105 5 -35 3 -39 -17 -39 -13 0
-24 -8 -27 -20 -11 -43 -43 -5 -43 52 0 18 -14 89 -30 158 -16 69 -32 168 -36
220 -3 52 -16 140 -29 195 -13 55 -29 152 -35 215 -28 286 -44 375 -76 401
-28 23 -37 60 -19 79 17 19 11 79 -60 605 -21 158 -45 417 -45 497 0 16 -10
37 -24 50 -33 31 -45 66 -53 154 -3 41 -12 82 -19 92 -11 14 -13 5 -14 -63 0
-53 -3 -75 -10 -65 -19 30 -22 -3 -10 -117 15 -151 27 -203 50 -225 38 -35 93
-308 62 -308 -15 0 -64 111 -71 159 -7 45 -7 45 -20 22 -17 -30 -10 -279 8
-326 7 -16 32 -50 56 -76 47 -51 88 -124 100 -179 6 -31 5 -33 -8 -20 -8 8
-25 41 -38 73 -29 73 -41 84 -75 68 -22 -10 -25 -16 -19 -39 3 -15 18 -46 33
-70 60 -97 71 -119 77 -157 l6 -40 -21 28 c-31 40 -38 34 -28 -24 6 -35 6 -55
-1 -62 -48 -48 -143 552 -173 1083 -14 255 0 668 23 697 11 12 15 89 19 349 3
183 8 336 13 340 4 4 7 -8 7 -27 0 -55 29 -607 36 -689 3 -41 10 -81 14 -89
14 -26 21 215 25 789 1 311 5 572 9 580 3 8 10 123 16 254 6 132 13 258 17
280 l7 41 8 -44 c4 -24 12 -193 17 -375z m-812 237 c-2 -27 -3 -5 -3 47 0 52
1 74 3 48 2 -27 2 -69 0 -95z m-631 20 c-3 -43 -9 -96 -11 -118 -3 -22 -1 -47
4 -55 8 -12 13 -12 30 5 21 18 21 18 15 -16 -4 -19 -11 -45 -16 -59 -9 -24
-10 -24 -24 -5 -23 31 -34 85 -34 170 0 86 14 155 32 155 8 0 9 -24 4 -77z
m624 -162 c9 -18 15 -119 6 -110 -3 2 -11 32 -19 67 -14 61 -8 81 13 43z m630
-157 c0 -85 -4 -154 -8 -154 -17 0 -33 182 -22 245 5 33 10 64 10 68 0 5 5 5
10 2 6 -4 10 -68 10 -161z m-1123 89 c-3 -10 -5 -4 -5 12 0 17 2 24 5 18 2 -7
2 -21 0 -30z m1393 -90 c0 -13 -3 -13 -15 -3 -8 7 -15 19 -15 27 0 13 3 13 15
3 8 -7 15 -19 15 -27z m-20 -90 c0 -7 -4 -13 -10 -13 -5 0 -10 12 -10 28 0 21
2 24 10 12 5 -8 10 -21 10 -27z m37 -185 c-2 -18 -4 -6 -4 27 0 33 2 48 4 33
2 -15 2 -42 0 -60z m-569 -138 c0 -115 -13 -66 -21 75 -5 104 -5 107 8 60 7
-27 13 -88 13 -135z m182 -113 c0 -30 -24 -62 -38 -53 -15 9 -15 31 -2 57 15
27 40 24 40 -4z m-32 -269 c5 -18 7 -35 5 -37 -6 -8 -22 14 -28 42 -10 39 12
35 23 -5z m-162 -135 c12 -30 15 -59 11 -96 l-5 -52 13 37 c7 20 20 47 28 60
8 12 19 43 23 68 7 38 9 26 15 -81 6 -124 18 -169 43 -169 7 0 16 -14 20 -31
10 -53 7 -559 -5 -649 -13 -98 -13 -94 0 -180 5 -36 10 -150 10 -255 0 -104 1
-228 1 -274 1 -56 -2 -81 -9 -76 -6 3 -11 21 -11 38 0 18 -7 41 -16 52 -11 15
-14 44 -13 120 1 60 -3 110 -10 122 -6 13 -11 74 -11 152 0 126 -1 131 -25
156 -14 14 -29 25 -32 25 -3 0 -4 -38 -1 -85 3 -60 9 -90 21 -103 20 -22 22
-68 3 -75 -10 -4 -14 -40 -18 -149 -5 -174 -22 -223 -32 -97 -13 149 -38 223
-83 240 l-26 10 6 342 c7 354 20 570 38 622 6 17 14 122 19 235 11 245 10 236
21 181 5 -24 16 -64 25 -88z m11 50 c-3 -10 -5 -2 -5 17 0 19 2 27 5 18 2 -10
2 -26 0 -35z m648 -1093 c15 -118 48 -348 75 -510 58 -357 61 -382 50 -399
-14 -24 -50 46 -50 99 -1 25 -7 72 -15 105 -8 33 -15 85 -15 115 0 30 -9 97
-20 149 -20 96 -44 302 -55 471 -3 52 -8 124 -10 160 -10 136 15 21 40 -190z
m-578 -432 c-2 -13 -4 -5 -4 17 -1 22 1 32 4 23 2 -10 2 -28 0 -40z m393 -178
c0 -11 -4 -20 -10 -20 -5 0 -10 9 -10 20 0 11 5 20 10 20 6 0 10 -9 10 -20z
m-1689 -293 c-8 -8 -11 -3 -11 19 1 25 2 27 11 11 8 -14 8 -22 0 -30z m7 -170
c-12 -66 -13 -69 -16 -32 -4 46 20 164 26 127 2 -13 -2 -56 -10 -95z m2042
-43 c14 -65 15 -167 2 -190 -15 -27 -19 -6 -27 130 -5 88 -4 126 3 122 6 -3
16 -31 22 -62z m-1936 -84 c16 -105 46 -352 46 -379 0 -10 -3 -12 -10 -5 -5 5
-19 81 -30 169 -11 88 -27 181 -36 206 -12 33 -15 59 -9 94 9 66 19 45 39 -85z
m1873 44 c8 -20 -17 -36 -34 -22 -10 8 -10 14 -2 24 15 18 28 18 36 -2z
m-1957 -44 c0 -11 -4 -20 -10 -20 -5 0 -10 9 -10 20 0 11 5 20 10 20 6 0 10
-9 10 -20z m1660 -35 c0 -14 -4 -25 -10 -25 -5 0 -10 11 -10 25 0 14 5 25 10
25 6 0 10 -11 10 -25z m330 -155 c5 -10 10 -31 10 -47 0 -33 8 -47 32 -56 27
-10 45 -87 103 -443 56 -337 63 -411 45 -475 -22 -80 -60 -73 -78 13 -14 65
-45 348 -40 354 3 2 17 -33 33 -79 15 -45 31 -85 35 -90 22 -25 -36 269 -63
317 -10 19 -11 19 -15 3 -3 -14 -7 -16 -18 -6 -9 8 -14 33 -14 78 0 45 -6 77
-18 101 -11 20 -22 68 -25 110 -4 41 -16 111 -27 154 -24 89 -21 113 10 96 11
-6 24 -19 30 -30z m-272 -118 c-6 -27 -23 -16 -26 18 -2 33 -2 34 13 15 9 -11
14 -26 13 -33z m30 -92 c4 -59 -13 -72 -26 -19 -6 23 -8 48 -5 56 10 27 28 6
31 -37z m81 -137 c14 -115 14 -140 0 -126 -13 13 -39 181 -38 248 l1 50 13
-42 c7 -23 18 -81 24 -130z m-1704 -393 c3 -86 2 -106 -5 -80 -14 50 -23 265
-10 225 6 -16 13 -82 15 -145z m94 -144 c24 -97 8 -166 -38 -166 -27 0 -41 21
-41 60 l1 35 19 -35 18 -35 9 30 c4 17 7 60 7 97 -2 76 8 81 25 14z m9093
-574 c18 -18 -50 -24 -150 -13 -152 17 -149 33 6 28 77 -2 137 -8 144 -15z
m142 -14 c-15 -7 -28 -7 -40 1 -16 9 -12 10 21 10 35 0 37 -2 19 -11z m96 -9
c0 -24 -23 -21 -28 4 -2 10 3 17 12 17 10 0 16 -9 16 -21z m275 -99 c4 -6 -9
-10 -32 -10 -28 0 -34 3 -23 10 20 13 47 13 55 0z m-15186 -159 c44 -12 37
-31 -12 -31 -49 0 -107 17 -107 31 0 10 83 10 119 0z m-214 -972 c59 -22 66
-32 36 -49 -40 -21 -105 -5 -153 38 -42 36 30 44 117 11z m536 -120 c16 -8 18
-13 9 -24 -10 -12 -16 -12 -40 0 -16 8 -32 19 -35 25 -8 13 41 13 66 -1z
m14296 -14 c-116 -32 -398 -60 -356 -35 22 13 278 48 349 48 l55 0 -48 -13z
m-13999 -30 c28 -9 52 -21 52 -27 0 -23 -230 17 -255 44 -14 15 136 3 203 -17z
m462 -55 c30 -19 -19 -23 -93 -7 l-72 15 75 1 c41 0 82 -3 90 -9z m378 -27
c-2 -10 -10 -18 -18 -18 -8 0 -16 8 -18 18 -2 12 3 17 18 17 15 0 20 -5 18
-17z m12932 6 c0 -47 -364 -89 -783 -89 -250 0 -139 21 259 50 305 21 475 37
483 45 9 9 41 5 41 -6z m-12725 -9 c58 -13 317 -39 467 -47 125 -6 129 -7 134
-30 4 -13 5 -25 3 -27 -2 -2 -43 2 -90 9 -47 7 -168 21 -270 29 -214 19 -349
35 -362 43 -13 8 26 32 53 32 14 0 43 -4 65 -9z m1233 -88 c37 -21 28 -42 -18
-42 -44 0 -52 -13 -19 -30 11 -7 19 -13 17 -15 -11 -11 -364 81 -374 97 -10
16 365 6 394 -10z m403 -32 c140 -12 184 -21 184 -39 0 -7 9 -19 19 -27 24
-17 35 -17 -181 1 -293 25 -358 54 -162 73 9 1 72 -3 140 -8z m324 -60 c16
-17 31 -20 111 -20 92 0 144 -11 144 -29 0 -23 -201 -13 -278 13 -45 16 -59
56 -19 56 13 0 32 -9 42 -20z m465 -46 c65 -14 90 -28 77 -41 -9 -8 -208 34
-220 46 -17 17 62 14 143 -5z m-2210 -25 c0 -24 -23 -21 -28 4 -2 10 3 17 12
17 10 0 16 -9 16 -21z m475 -19 c274 -13 428 -28 480 -47 118 -43 165 -55 239
-56 86 -2 114 14 54 32 -26 7 -12 9 73 10 136 1 231 -8 226 -23 -2 -7 -40 -11
-103 -11 -54 0 -105 -4 -111 -8 -7 -5 -13 -24 -13 -43 l0 -36 -42 7 c-23 4
-103 23 -178 42 -226 58 -248 62 -445 73 -265 15 -491 42 -581 70 -30 9 -30 9
401 -10z m2360 0 c256 -15 444 -37 471 -55 14 -9 24 -25 24 -40 0 -36 -20 -42
-42 -11 -11 14 -24 23 -30 20 -16 -10 -103 -6 -218 11 -58 8 -161 15 -230 15
-171 1 -440 38 -440 61 0 12 250 11 465 -1z m-730 -140 c40 -13 -185 -5 -235
10 -26 7 -5 8 85 5 66 -2 134 -9 150 -15z m-2340 -31 c7 -7 -2 -9 -29 -7 -23
2 -41 9 -44 17 -4 11 3 13 29 7 18 -3 38 -11 44 -17z m6715 6 c0 -8 -7 -15
-16 -15 -27 0 -11 -33 21 -42 37 -11 107 -3 203 23 97 27 186 30 204 7 7 -9
29 -23 48 -31 34 -13 32 -14 -75 -20 -202 -12 -669 -18 -715 -10 -35 7 -45 13
-45 28 0 27 35 41 145 58 133 21 230 22 230 2z m-5969 -6 c11 -5 17 -14 14
-20 -10 -15 -41 -10 -66 11 l-24 19 28 1 c16 0 37 -5 48 -11z m6818 -20 c17
-6 31 -14 31 -19 0 -20 -119 -27 -165 -10 -23 9 -25 13 -15 25 15 18 102 20
149 4z m-4831 -6 c-10 -2 -26 -2 -35 0 -10 3 -2 5 17 5 19 0 27 -2 18 -5z
m782 -25 c47 -32 49 -48 7 -48 -34 0 -58 18 -70 53 -9 25 22 22 63 -5z m-433
-10 c13 -14 6 -14 -73 -1 -48 7 -90 16 -93 20 -4 3 29 3 72 1 51 -3 84 -10 94
-20z m4487 -94 c19 -7 22 -34 4 -34 -7 1 -29 9 -48 20 l-35 19 32 1 c17 0 38
-3 47 -6z m-4934 -30 c0 -2 -19 -4 -42 -3 -35 1 -38 2 -18 8 23 7 60 4 60 -5z
m645 -124 c0 -19 -41 -25 -61 -10 -24 21 -16 31 24 28 25 -2 37 -8 37 -18z
m3634 11 c23 -15 -21 -31 -83 -31 -71 0 -72 15 -3 28 70 13 70 13 86 3z m-326
-18 c-29 -2 -77 -2 -105 0 -29 2 -6 3 52 3 58 0 81 -1 53 -3z m-3043 -23 c11
-7 12 -14 4 -27 -13 -22 -36 -30 -28 -10 3 8 1 18 -5 22 -15 9 -14 25 2 25 6
0 19 -5 27 -10z m4300 0 c11 -7 6 -10 -20 -10 -26 0 -31 3 -20 10 8 5 17 10
20 10 3 0 12 -5 20 -10z m-4607 -16 c21 -6 13 -24 -11 -24 -34 0 -92 21 -86
31 6 10 50 6 97 -7z m635 -35 c-4 -27 -23 -36 -32 -14 -8 22 13 60 26 47 5 -5
8 -20 6 -33z m-447 20 c61 -21 59 -32 -5 -26 -66 7 -116 37 -60 37 17 0 46 -5
65 -11z m2997 4 c-10 -2 -28 -2 -40 0 -13 2 -5 4 17 4 22 1 32 -1 23 -4z m272
-8 c-41 -7 -87 -18 -102 -25 -22 -10 -30 -10 -49 4 -13 9 -32 13 -46 10 -24
-6 -33 10 -10 19 6 3 73 5 147 5 l135 0 -75 -13z m-1891 -39 c22 -26 31 -183
41 -736 6 -305 15 -589 20 -630 7 -59 6 -80 -6 -97 -8 -12 -14 -33 -14 -47 0
-40 -18 -40 -29 1 -9 37 -18 117 -42 368 -14 144 -28 182 -29 75 0 -143 20
-476 36 -600 22 -162 24 -531 5 -575 l-14 -30 -13 43 c-13 44 -32 157 -59 352
-8 63 -29 176 -46 250 -17 74 -31 161 -32 192 -2 49 -4 57 -19 52 -15 -4 -17
1 -12 43 3 28 -5 120 -20 223 -43 298 -43 310 -12 248 6 -12 16 -23 22 -25 16
-5 27 75 20 140 -12 106 -27 570 -20 628 7 61 24 82 24 29 0 -16 8 -37 19 -47
36 -35 62 -169 90 -473 l17 -195 -4 290 c-5 304 6 470 34 512 17 26 27 29 43
9z m166 -148 c10 -106 11 -918 2 -952 -19 -68 -57 58 -57 192 0 68 -3 82 -16
82 -11 0 -14 6 -8 23 4 12 8 96 9 187 3 149 9 201 30 252 5 12 1 17 -16 20
-16 2 -26 13 -33 36 -7 27 -5 41 17 85 15 29 27 66 27 84 0 41 9 63 25 63 9 0
15 -23 20 -72z m1245 -277 c11 -79 19 -146 15 -149 -12 -12 -26 17 -40 84 -16
77 -21 234 -6 219 5 -6 19 -75 31 -154z m169 -250 c13 -41 15 -121 2 -121 -11
0 -31 87 -31 137 0 42 12 35 29 -16z m-1506 -972 c2 -75 -17 -97 -21 -25 -3
38 -7 49 -23 53 -25 7 -24 18 3 37 31 22 40 8 41 -65z m6 -230 c-16 -74 -28
-94 -29 -46 0 38 26 115 35 105 3 -3 0 -29 -6 -59z m1561 -1419 c0 -16 -4 -30
-10 -30 -5 0 -10 14 -10 30 0 17 5 30 10 30 6 0 10 -13 10 -30z m-1230 -70 c0
-11 -4 -20 -10 -20 -5 0 -10 9 -10 20 0 11 5 20 10 20 6 0 10 -9 10 -20z m753
-1401 c4 -84 14 -213 23 -287 15 -125 15 -140 0 -202 -9 -38 -16 -108 -16
-156 0 -107 -7 -136 -29 -132 -12 3 -18 21 -23 77 -4 41 -19 107 -33 148 -25
73 -26 79 -20 261 10 293 31 451 54 413 7 -10 10 -9 16 8 15 47 22 14 28 -130z
m117 -539 c7 -283 16 -481 25 -545 8 -55 14 -120 15 -144 l0 -44 -24 22 c-42
39 -76 212 -76 391 -1 138 45 953 47 855 2 -49 8 -290 13 -535z m-355 303 c-8
-225 -20 -395 -24 -333 -15 245 -28 309 -50 239 -17 -55 -3 105 15 168 18 65
51 143 60 143 4 0 4 -98 -1 -217z m-85 -365 c0 -16 -3 -19 -11 -11 -6 6 -8 16
-5 22 11 17 16 13 16 -11z m609 -246 c11 -70 7 -122 -9 -122 -15 0 -20 32 -20
128 1 109 12 107 29 -6z m101 -391 c0 -17 -4 -33 -10 -36 -6 -4 -10 8 -10 29
0 20 5 36 10 36 6 0 10 -13 10 -29z m200 -108 c0 -13 -4 -23 -9 -23 -12 0 -21
26 -21 58 1 26 1 26 15 8 8 -11 15 -30 15 -43z m-1454 -95 c-3 -46 -8 -128
-11 -183 -16 -270 -48 -516 -66 -498 -4 4 -15 58 -24 118 -16 117 -32 148 -63
129 -9 -6 -25 -26 -34 -45 -9 -19 -17 -29 -18 -23 -1 28 24 132 38 159 8 16
18 46 21 65 8 44 29 45 56 3 11 -18 23 -32 28 -33 4 0 7 28 7 63 0 74 9 115
21 96 15 -26 22 1 27 116 2 63 9 115 14 115 6 0 8 -33 4 -82z m1318 -425 c14
-49 17 -91 6 -98 -28 -17 -57 45 -40 89 11 30 26 34 34 9z m-900 -1095 c-14
-26 -19 -29 -22 -15 -4 20 29 78 35 60 2 -6 -4 -27 -13 -45z m786 -25 c0 -20
-3 -24 -11 -16 -7 7 -9 19 -6 27 10 24 17 19 17 -11z m-1080 -166 c6 -45 20
-122 31 -172 22 -102 38 -520 25 -658 -9 -91 -18 -91 -59 1 -48 107 -74 252
-45 252 8 0 9 76 4 304 -7 321 -3 402 19 372 7 -9 18 -54 25 -99z m-340 -75
c-7 -45 -17 -85 -22 -88 -12 -7 -6 54 15 186 11 72 12 73 15 30 2 -25 -1 -82
-8 -128z m167 -199 c-2 -21 -4 -6 -4 32 0 39 2 55 4 38 2 -18 2 -50 0 -70z
m1204 -1236 c-8 -8 -11 -3 -11 19 1 25 2 27 11 11 8 -14 8 -22 0 -30z m-1221
-1398 c0 -10 -4 -19 -10 -19 -5 0 -10 12 -10 26 0 14 4 23 10 19 6 -3 10 -15
10 -26z m-8 -81 c17 -31 18 -588 1 -903 -7 -126 -20 -471 -29 -765 -8 -294
-17 -537 -20 -539 -2 -2 -7 -1 -11 3 -5 4 -6 311 -5 681 2 371 0 704 -3 741
-12 112 -27 50 -34 -147 -4 -124 -10 -182 -19 -191 -10 -10 -15 -10 -22 2 -5
8 -10 23 -10 33 0 29 -17 19 -24 -15 -4 -18 -9 -98 -13 -178 -3 -80 -10 -153
-15 -162 -13 -27 -47 -22 -54 8 -9 33 42 912 54 944 7 19 17 25 38 25 l29 0
12 102 c6 56 17 112 24 125 11 21 13 21 19 3 13 -38 23 9 46 213 6 47 17 53
36 20z m-242 -213 c0 -8 -4 -17 -10 -20 -6 -4 -10 5 -10 20 0 15 4 24 10 20 6
-3 10 -12 10 -20z m-280 -119 c-6 -15 -9 -5 -8 34 0 50 1 52 8 21 5 -19 4 -44
0 -55z m236 -166 l-14 -65 -1 57 c-1 31 5 81 12 110 l12 53 3 -45 c1 -25 -4
-74 -12 -110z m-9 -157 c13 -51 7 -107 -20 -198 l-27 -90 5 110 c9 190 23 249
42 178z m-82 -812 c-33 -138 -49 -154 -43 -43 3 57 10 87 21 100 10 10 17 26
17 35 0 8 5 28 12 44 l12 28 4 -27 c2 -15 -9 -76 -23 -137z m135 -661 c0 -10
-4 -22 -10 -25 -6 -4 -10 7 -10 25 0 18 4 29 10 25 6 -3 10 -15 10 -25z m209
-563 c13 -360 29 -569 72 -942 33 -276 51 -675 32 -675 -6 0 -14 10 -17 23
-12 42 -24 -5 -41 -158 -9 -83 -19 -161 -22 -175 -6 -23 -6 -23 -14 10 -4 19
-15 163 -24 320 -23 429 -35 540 -60 560 -23 19 -35 -20 -42 -137 -8 -145 3
-267 24 -259 13 5 14 0 9 -31 -3 -21 -9 -127 -12 -235 -6 -171 -5 -202 10
-232 22 -47 20 -81 -6 -106 -16 -15 -24 -37 -29 -86 -3 -35 -9 -67 -12 -70
-18 -18 -25 23 -31 173 -4 92 -18 371 -31 618 -41 751 -56 1094 -53 1230 3
125 7 136 24 70 7 -23 10 -8 14 66 5 96 17 129 46 129 9 0 14 -13 15 -37 0
-21 6 -56 13 -78 12 -37 13 -28 20 121 5 89 5 172 1 185 -14 46 5 12 23 -40
10 -29 22 -52 27 -52 6 0 19 29 29 65 10 37 20 65 22 64 1 -2 7 -146 13 -321z
m328 106 c-3 -10 -5 -4 -5 12 0 17 2 24 5 18 2 -7 2 -21 0 -30z m8 -323 c8
-141 -4 -377 -16 -325 -10 45 -11 467 0 461 5 -3 12 -64 16 -136z m405 -176
c11 -28 3 -94 -10 -94 -13 0 -22 57 -15 90 8 37 13 37 25 4z m-823 -771 c-2
-16 -4 -3 -4 27 0 30 2 43 4 28 2 -16 2 -40 0 -55z m208 -880 c-3 -13 -10 -23
-17 -23 -12 0 -5 143 9 190 9 30 17 -132 8 -167z m202 -100 c-2 -16 -4 -3 -4
27 0 30 2 43 4 28 2 -16 2 -40 0 -55z m-410 -40 c-2 -16 -4 -3 -4 27 0 30 2
43 4 28 2 -16 2 -40 0 -55z m410 -190 c-3 -10 -5 -4 -5 12 0 17 2 24 5 18 2
-7 2 -21 0 -30z m-17 -80 c0 -20 -3 -24 -11 -16 -7 7 -9 19 -6 27 10 24 17 19
17 -11z m-3 -620 c-3 -10 -5 -2 -5 17 0 19 2 27 5 18 2 -10 2 -26 0 -35z"/>
<path d="M7681 25405 c0 -31 2 -36 9 -23 6 10 7 25 1 40 -9 20 -10 18 -10 -17z"/>
<path d="M6720 25430 c0 -11 5 -20 10 -20 6 0 10 9 10 20 0 11 -4 20 -10 20
-5 0 -10 -9 -10 -20z"/>
<path d="M8092 24170 c0 -59 2 -67 8 -37 4 20 4 54 0 75 -6 29 -8 21 -8 -38z"/>
<path d="M8020 23625 c0 -36 3 -46 10 -35 5 8 10 24 10 35 0 11 -5 27 -10 35
-7 11 -10 1 -10 -35z"/>
<path d="M7860 22745 c0 -15 4 -24 10 -20 6 3 10 12 10 20 0 8 -4 17 -10 20
-6 4 -10 -5 -10 -20z"/>
<path d="M8200 21906 c0 -14 5 -26 10 -26 6 0 10 9 10 19 0 11 -4 23 -10 26
-6 4 -10 -5 -10 -19z"/>
<path d="M7643 23495 c0 -27 2 -38 4 -22 2 15 2 37 0 50 -2 12 -4 0 -4 -28z"/>
<path d="M7638 23293 c-5 -18 -11 -47 -14 -64 -3 -17 -12 -33 -20 -36 -21 -8
-17 -33 6 -33 11 0 20 -5 20 -11 0 -6 -9 -22 -20 -36 -12 -16 -20 -40 -19 -62
1 -37 3 -35 14 12 4 20 10 27 21 23 22 -8 25 9 22 130 -2 76 -5 99 -10 77z"/>
<path d="M7633 23015 c-3 -9 -3 -19 1 -22 7 -7 36 16 36 28 0 15 -30 10 -37
-6z"/>
<path d="M7502 22705 c0 -16 2 -22 5 -12 2 9 2 23 0 30 -3 6 -5 -1 -5 -18z"/>
<path d="M7342 17085 c0 -16 2 -22 5 -12 2 9 2 23 0 30 -3 6 -5 -1 -5 -18z"/>
<path d="M7257 16594 c-3 -4 -2 -16 4 -26 13 -24 35 -9 26 16 -7 17 -19 21
-30 10z"/>
<path d="M7610 16985 c0 -25 5 -45 10 -45 6 0 10 20 10 45 0 25 -4 45 -10 45
-5 0 -10 -20 -10 -45z"/>
<path d="M7610 6159 c0 -24 23 -21 28 4 2 10 -3 17 -12 17 -10 0 -16 -9 -16
-21z"/>
<path d="M7536 6084 c-3 -9 -6 -31 -6 -51 0 -53 24 -36 28 20 3 46 -10 63 -22
31z"/>
<path d="M7536 3315 c-6 -25 -4 -64 10 -153 3 -20 9 -30 16 -26 7 5 8 35 4 93
-8 97 -19 129 -30 86z"/>
<path d="M7592 3075 c0 -16 2 -22 5 -12 2 9 2 23 0 30 -3 6 -5 -1 -5 -18z"/>
<path d="M7753 2525 c0 -33 2 -45 4 -27 2 18 2 45 0 60 -2 15 -4 0 -4 -33z"/>
<path d="M7914 26455 c-18 -27 -44 -124 -44 -163 0 -14 17 10 45 63 36 69 43
90 35 106 -14 25 -16 24 -36 -6z"/>
<path d="M7510 26431 c-13 -25 -13 -34 0 -26 16 10 32 45 21 45 -6 0 -15 -9
-21 -19z"/>
<path d="M8234 26355 c-18 -43 -18 -51 0 -36 8 7 19 25 25 42 15 42 -6 37 -25
-6z"/>
<path d="M8331 26339 c-23 -37 -26 -49 -12 -49 11 0 45 70 37 77 -3 3 -14 -10
-25 -28z"/>
<path d="M7496 26155 c-3 -8 -2 -24 2 -36 8 -20 9 -20 20 6 12 26 9 45 -8 45
-4 0 -10 -7 -14 -15z"/>
<path d="M6527 26088 c-18 -38 -50 -158 -44 -164 5 -5 87 170 87 185 0 24 -29
9 -43 -21z"/>
<path d="M7026 26054 c-3 -9 -6 -23 -6 -32 1 -15 3 -14 15 2 17 22 20 46 6 46
-5 0 -12 -7 -15 -16z"/>
<path d="M6956 25993 c-14 -20 -26 -51 -26 -68 l0 -30 20 25 c18 24 43 100 35
108 -2 2 -15 -14 -29 -35z"/>
<path d="M8226 25939 c-20 -97 -24 -488 -5 -535 l11 -29 10 25 c15 35 15 537
0 552 -8 8 -12 4 -16 -13z"/>
<path d="M6910 25674 c-22 -50 -26 -94 -10 -94 6 0 14 10 19 23 9 25 21 117
14 117 -2 0 -13 -21 -23 -46z"/>
<path d="M6932 25315 c0 -16 2 -22 5 -12 2 9 2 23 0 30 -3 6 -5 -1 -5 -18z"/>
<path d="M6167 25187 c-3 -7 -10 -49 -17 -93 -26 -181 -32 -210 -46 -231 -8
-14 -14 -44 -13 -75 1 -29 -4 -78 -11 -109 -13 -57 -7 -149 10 -149 5 0 11 13
15 29 3 16 12 35 20 41 7 6 18 41 24 78 11 71 41 423 41 485 0 36 -13 50 -23
24z"/>
<path d="M8220 25161 c0 -11 5 -23 10 -26 6 -4 10 5 10 19 0 14 -4 26 -10 26
-5 0 -10 -9 -10 -19z"/>
<path d="M8295 25100 c-3 -11 -2 -28 4 -37 8 -15 10 -11 11 20 0 41 -5 47 -15
17z"/>
<path d="M8450 24835 c0 -15 4 -24 10 -20 6 3 10 12 10 20 0 8 -4 17 -10 20
-6 4 -10 -5 -10 -20z"/>
<path d="M8306 24604 c-9 -23 4 -154 15 -154 15 0 14 147 -1 163 -4 5 -10 0
-14 -9z"/>
<path d="M6183 24535 c0 -27 2 -38 4 -22 2 15 2 37 0 50 -2 12 -4 0 -4 -28z"/>
<path d="M6611 24491 c-1 -27 2 -32 11 -23 8 8 8 17 0 34 -10 22 -11 21 -11
-11z"/>
<path d="M6236 24494 c-3 -9 -6 -52 -5 -97 l1 -82 14 60 c7 33 13 74 14 92 0
35 -14 52 -24 27z"/>
<path d="M6092 24425 c0 -16 2 -22 5 -12 2 9 2 23 0 30 -3 6 -5 -1 -5 -18z"/>
<path d="M6682 24330 c0 -19 2 -27 5 -17 2 9 2 25 0 35 -3 9 -5 1 -5 -18z"/>
<path d="M7020 24336 c0 -22 3 -27 11 -19 8 8 8 16 0 30 -9 16 -10 14 -11 -11z"/>
<path d="M6163 24305 c0 -27 2 -38 4 -22 2 15 2 37 0 50 -2 12 -4 0 -4 -28z"/>
<path d="M6491 24272 c-13 -64 -14 -92 -2 -92 18 0 35 88 23 121 -8 22 -10 19
-21 -29z"/>
<path d="M6054 24286 c-7 -20 2 -46 16 -46 13 0 13 47 0 55 -6 3 -13 -1 -16
-9z"/>
<path d="M6643 24260 c0 -25 2 -35 4 -22 2 12 2 32 0 45 -2 12 -4 2 -4 -23z"/>
<path d="M5932 24225 c0 -16 2 -22 5 -12 2 9 2 23 0 30 -3 6 -5 -1 -5 -18z"/>
<path d="M8320 24216 c-12 -34 -13 -93 -1 -101 15 -9 37 103 23 117 -8 8 -14
4 -22 -16z"/>
<path d="M6235 24140 c-12 -19 -18 -197 -8 -203 11 -7 33 106 33 167 0 36 -13
55 -25 36z"/>
<path d="M7040 24081 c0 -17 5 -31 10 -31 6 0 10 11 10 24 0 14 -4 28 -10 31
-6 4 -10 -7 -10 -24z"/>
<path d="M5933 24060 c0 -25 2 -35 4 -22 2 12 2 32 0 45 -2 12 -4 2 -4 -23z"/>
<path d="M6461 24053 c0 -15 4 -37 9 -48 7 -18 9 -18 15 -3 10 24 2 71 -12 76
-9 2 -13 -6 -12 -25z"/>
<path d="M6130 24035 c0 -14 5 -25 10 -25 6 0 10 11 10 25 0 14 -4 25 -10 25
-5 0 -10 -11 -10 -25z"/>
<path d="M6360 23992 c0 -33 4 -51 10 -47 13 8 13 65 0 85 -7 11 -10 0 -10
-38z"/>
<path d="M6682 23995 c0 -16 2 -22 5 -12 2 9 2 23 0 30 -3 6 -5 -1 -5 -18z"/>
<path d="M7021 23925 c0 -35 2 -37 11 -19 7 15 7 28 -1 40 -9 16 -10 12 -10
-21z"/>
<path d="M6040 23895 c0 -19 5 -35 10 -35 6 0 10 16 10 35 0 19 -4 35 -10 35
-5 0 -10 -16 -10 -35z"/>
<path d="M6323 23850 c0 -25 2 -35 4 -22 2 12 2 32 0 45 -2 12 -4 2 -4 -23z"/>
<path d="M6465 23863 c-9 -21 -20 -260 -12 -253 9 8 37 188 37 233 0 39 -13
49 -25 20z"/>
<path d="M6520 23778 c1 -40 2 -42 16 -23 17 23 15 56 -3 63 -9 2 -13 -9 -13
-40z"/>
<path d="M6216 23772 c-12 -36 -25 -169 -26 -249 0 -170 36 -54 47 150 4 81 3
117 -5 117 -6 0 -13 -8 -16 -18z"/>
<path d="M6130 23746 c0 -14 5 -26 10 -26 6 0 10 9 10 19 0 11 -4 23 -10 26
-6 4 -10 -5 -10 -19z"/>
<path d="M7003 23670 c0 -41 2 -58 4 -37 2 20 2 54 0 75 -2 20 -4 3 -4 -38z"/>
<path d="M5932 23675 c0 -16 2 -22 5 -12 2 9 2 23 0 30 -3 6 -5 -1 -5 -18z"/>
<path d="M6280 23613 c0 -23 17 -49 26 -41 9 10 -4 58 -16 58 -6 0 -10 -8 -10
-17z"/>
<path d="M6450 23548 c0 -16 5 -28 10 -28 13 0 13 20 0 40 -8 12 -10 9 -10
-12z"/>
<path d="M8342 23430 c-1 -39 2 -49 8 -34 4 11 5 36 0 55 -7 31 -8 29 -8 -21z"/>
<path d="M6020 23403 c0 -21 3 -24 9 -14 5 8 7 20 4 28 -8 21 -13 15 -13 -14z"/>
<path d="M6192 23378 c-7 -7 -12 -20 -12 -31 0 -24 33 -19 38 7 5 24 -11 39
-26 24z"/>
<path d="M6022 23315 c0 -16 2 -22 5 -12 2 9 2 23 0 30 -3 6 -5 -1 -5 -18z"/>
<path d="M6653 23254 c-3 -8 -1 -20 6 -27 8 -8 11 -4 11 16 0 30 -7 35 -17 11z"/>
<path d="M6110 23215 c0 -36 3 -46 10 -35 5 8 10 24 10 35 0 11 -5 27 -10 35
-7 11 -10 1 -10 -35z"/>
<path d="M7200 23111 c0 -17 5 -31 10 -31 6 0 10 11 10 24 0 14 -4 28 -10 31
-6 4 -10 -7 -10 -24z"/>
<path d="M6324 23054 c-20 -48 -15 -79 8 -44 21 33 31 80 18 80 -6 0 -18 -16
-26 -36z"/>
<path d="M6880 23046 c0 -14 5 -26 10 -26 6 0 10 9 10 19 0 11 -4 23 -10 26
-6 4 -10 -5 -10 -19z"/>
<path d="M6022 22985 c0 -51 1 -55 9 -30 5 18 5 43 0 60 -8 25 -9 20 -9 -30z"/>
<path d="M8385 22823 c7 -50 31 -288 45 -433 10 -109 49 -294 70 -329 13 -23
13 40 0 110 -9 47 -100 669 -100 684 0 3 -5 5 -10 5 -6 0 -8 -15 -5 -37z"/>
<path d="M6899 22833 c-3 -51 4 -195 11 -243 6 -43 8 -22 9 97 1 92 -3 154 -9
158 -5 3 -10 -2 -11 -12z"/>
<path d="M6107 22790 c-10 -78 -8 -382 2 -399 14 -22 24 219 14 344 -8 105 -9
108 -16 55z"/>
<path d="M6324 22724 c-7 -27 0 -143 13 -204 l7 -35 13 50 c23 91 14 215 -17
215 -5 0 -13 -12 -16 -26z"/>
<path d="M6823 22675 c0 -38 2 -53 4 -32 2 20 2 52 0 70 -2 17 -4 1 -4 -38z"/>
<path d="M7203 22481 c3 -24 11 -49 17 -55 10 -8 11 -1 7 33 -3 24 -11 49 -17
55 -10 8 -11 1 -7 -33z"/>
<path d="M7137 22473 c-9 -14 14 -236 26 -248 6 -6 7 28 4 95 -6 109 -18 172
-30 153z"/>
<path d="M6803 22400 c0 -30 2 -43 4 -27 2 15 2 39 0 55 -2 15 -4 2 -4 -28z"/>
<path d="M6935 22265 c5 -158 17 -244 37 -256 8 -5 9 -32 5 -88 -4 -45 -4 -88
-1 -96 8 -19 33 -19 40 0 9 24 24 17 24 -10 0 -14 5 -25 10 -25 12 0 5 78 -20
210 -21 108 -31 140 -55 163 -11 12 -19 47 -26 119 -15 155 -19 149 -14 -17z"/>
<path d="M7216 22324 c-11 -29 -6 -62 13 -85 27 -34 35 -18 21 40 -13 55 -24
70 -34 45z"/>
<path d="M6610 22010 c0 -25 4 -39 10 -35 6 3 10 19 10 35 0 16 -4 32 -10 35
-6 4 -10 -10 -10 -35z"/>
<path d="M6680 21950 c0 -29 3 -51 6 -47 8 7 7 87 0 95 -3 3 -6 -19 -6 -48z"/>
<path d="M6137 21947 c-11 -28 -8 -82 5 -114 10 -24 12 -25 15 -8 6 35 -12
142 -20 122z"/>
<path d="M8536 21838 c42 -148 56 -190 61 -184 15 15 -48 236 -67 236 -5 0 -2
-24 6 -52z"/>
<path d="M7000 21728 c0 -24 7 -62 15 -85 8 -23 28 -123 44 -223 17 -99 38
-196 47 -216 11 -23 15 -49 11 -77 l-5 -42 15 35 c12 28 14 56 8 140 -10 134
-9 157 10 186 20 31 19 100 -5 208 -22 97 -39 131 -51 99 -4 -10 -8 -38 -9
-63 l-1 -45 -29 63 c-16 34 -34 62 -40 62 -5 0 -10 -19 -10 -42z"/>
<path d="M6163 21700 c0 -25 2 -35 4 -22 2 12 2 32 0 45 -2 12 -4 2 -4 -23z"/>
<path d="M7200 21719 c0 -19 41 -173 51 -189 22 -38 3 108 -22 173 -11 27 -29
37 -29 16z"/>
<path d="M6630 21663 c0 -44 13 -69 29 -59 22 14 6 96 -19 96 -6 0 -10 -17
-10 -37z"/>
<path d="M6181 21614 c-28 -35 -38 -111 -20 -143 23 -40 34 -22 35 54 0 39 6
80 13 93 16 30 -3 28 -28 -4z"/>
<path d="M6592 21565 c0 -16 2 -22 5 -12 2 9 2 23 0 30 -3 6 -5 -1 -5 -18z"/>
<path d="M6960 21497 c0 -35 29 -177 41 -197 14 -25 10 58 -6 129 -19 78 -34
109 -35 68z"/>
<path d="M6611 21395 c0 -35 2 -37 11 -19 7 15 7 28 -1 40 -9 16 -10 12 -10
-21z"/>
<path d="M6186 21368 c-9 -34 -7 -121 3 -137 17 -27 31 1 31 64 0 65 -6 95
-20 95 -4 0 -10 -10 -14 -22z"/>
<path d="M6251 21303 c-1 -15 18 -161 25 -192 4 -18 8 -21 16 -13 9 9 8 28 0
75 -12 64 -40 152 -41 130z"/>
<path d="M6638 21257 c-3 -13 -1 -32 3 -43 5 -13 8 -7 8 24 1 46 -4 55 -11 19z"/>
<path d="M6593 21220 c0 -25 2 -35 4 -22 2 12 2 32 0 45 -2 12 -4 2 -4 -23z"/>
<path d="M7171 21163 c-11 -39 -9 -58 16 -137 17 -53 33 -47 33 13 0 51 -21
161 -31 161 -4 0 -13 -17 -18 -37z"/>
<path d="M7025 21135 c2 -22 7 -84 10 -138 3 -59 12 -114 22 -135 l17 -37 4
29 c2 16 -6 86 -19 155 -22 130 -42 201 -34 126z"/>
<path d="M7290 21083 c0 -48 8 -73 22 -73 14 0 4 88 -11 103 -8 8 -11 0 -11
-30z"/>
<path d="M6284 21028 c3 -12 17 -74 30 -136 13 -62 27 -116 31 -120 10 -10 -5
173 -19 228 -8 31 -17 46 -30 48 -15 3 -18 0 -12 -20z"/>
<path d="M6163 20970 c0 -25 2 -35 4 -22 2 12 2 32 0 45 -2 12 -4 2 -4 -23z"/>
<path d="M7130 20985 c0 -14 5 -25 10 -25 6 0 10 11 10 25 0 14 -4 25 -10 25
-5 0 -10 -11 -10 -25z"/>
<path d="M7310 20950 c0 -11 5 -20 10 -20 6 0 10 9 10 20 0 11 -4 20 -10 20
-5 0 -10 -9 -10 -20z"/>
<path d="M7330 20776 c0 -63 11 -111 21 -94 16 25 6 138 -12 138 -5 0 -9 -20
-9 -44z"/>
<path d="M895 20590 c-4 -6 5 -10 20 -10 15 0 24 4 20 10 -3 6 -12 10 -20 10
-8 0 -17 -4 -20 -10z"/>
<path d="M7085 20587 c-8 -19 16 -175 34 -219 11 -30 41 -38 41 -12 0 29 -42
198 -55 224 -12 22 -14 23 -20 7z"/>
<path d="M6682 20565 c0 -16 2 -22 5 -12 2 9 2 23 0 30 -3 6 -5 -1 -5 -18z"/>
<path d="M6716 20507 c-20 -50 -16 -71 10 -45 10 10 14 29 12 54 l-3 39 -19
-48z"/>
<path d="M6380 20485 c0 -14 5 -25 10 -25 6 0 10 11 10 25 0 14 -4 25 -10 25
-5 0 -10 -11 -10 -25z"/>
<path d="M13920 20224 c-88 -14 -130 -45 -69 -52 73 -8 93 -16 120 -45 28 -30
33 -32 96 -30 61 2 91 11 68 20 -25 9 -39 23 -31 30 4 4 158 10 341 13 183 3
336 8 340 11 27 28 -728 73 -865 53z"/>
<path d="M14950 20161 c-46 -13 -4 -22 152 -33 84 -5 171 -16 192 -24 35 -11
41 -11 52 4 11 16 14 15 34 -3 12 -11 36 -21 54 -22 17 -1 44 -5 60 -9 37 -9
32 15 -7 34 -79 39 -455 76 -537 53z"/>
<path d="M15640 20093 c0 -10 94 -33 137 -33 27 0 31 15 6 25 -33 12 -143 18
-143 8z"/>
<path d="M15925 20071 c-50 -11 -12 -23 71 -23 41 1 89 4 107 8 l32 8 -40 7
c-48 9 -128 9 -170 0z"/>
<path d="M15097 20023 c18 -2 50 -2 70 0 21 2 7 4 -32 4 -38 0 -55 -2 -38 -4z"/>
<path d="M15324 20015 c-19 -14 -19 -14 1 -15 32 0 65 12 59 21 -8 14 -38 11
-60 -6z"/>
<path d="M15525 20000 c-14 -6 -5 -9 35 -9 39 -1 51 2 40 9 -18 12 -48 12 -75
0z"/>
<path d="M15778 19953 c23 -2 59 -2 80 0 20 2 1 4 -43 4 -44 0 -61 -2 -37 -4z"/>
<path d="M15990 19930 c0 -5 16 -10 36 -10 21 0 33 4 29 10 -3 6 -19 10 -36
10 -16 0 -29 -4 -29 -10z"/>
<path d="M16288 19883 c12 -2 32 -2 45 0 12 2 2 4 -23 4 -25 0 -35 -2 -22 -4z"/>
<path d="M16385 19840 c-4 -6 7 -10 25 -10 18 0 29 4 25 10 -3 6 -15 10 -25
10 -10 0 -22 -4 -25 -10z"/>
<path d="M16078 19433 c-28 -7 -31 -33 -3 -33 28 0 75 20 75 32 0 8 -42 9 -72
1z"/>
<path d="M15963 19383 c9 -2 25 -2 35 0 9 3 1 5 -18 5 -19 0 -27 -2 -17 -5z"/>
<path d="M16225 19380 c3 -5 12 -10 20 -10 8 0 17 5 20 10 4 6 -5 10 -20 10
-15 0 -24 -4 -20 -10z"/>
<path d="M16470 18400 c-25 -10 -38 -19 -29 -19 29 -1 134 21 144 30 17 17
-68 9 -115 -11z"/>
<path d="M16335 18360 c-4 -6 5 -10 19 -10 14 0 26 5 26 10 0 6 -9 10 -19 10
-11 0 -23 -4 -26 -10z"/>
<path d="M16233 18326 c22 -17 117 -30 129 -18 6 6 -15 14 -54 21 -85 15 -98
14 -75 -3z"/>
<path d="M16154 18290 c-26 -10 -41 -30 -22 -30 7 0 31 9 53 19 34 17 36 19
15 20 -14 0 -35 -4 -46 -9z"/>
<path d="M15730 18230 c-25 -10 -132 -35 -237 -55 -106 -21 -193 -41 -193 -46
0 -9 51 -5 215 17 145 19 209 38 248 74 37 34 31 35 -33 10z"/>
<path d="M15125 18199 c-69 -17 -65 -29 11 -29 76 0 148 16 139 31 -8 11 -96
10 -150 -2z"/>
<path d="M15380 18200 c0 -5 9 -10 20 -10 11 0 20 5 20 10 0 6 -9 10 -20 10
-11 0 -20 -4 -20 -10z"/>
<path d="M16295 18205 c-83 -29 -442 -112 -562 -130 -24 -4 -59 -18 -78 -31
-20 -13 -47 -27 -60 -30 -43 -11 -27 -22 40 -29 36 -4 63 -10 60 -14 -4 -3
-46 -21 -93 -39 l-87 -33 66 6 c78 6 147 28 209 66 25 15 83 36 130 48 88 21
370 114 453 150 26 11 47 25 47 31 0 9 -101 13 -125 5z"/>
<path d="M14945 18180 c-3 -6 1 -13 9 -16 22 -8 68 4 61 16 -8 13 -62 13 -70
0z"/>
<path d="M14775 18171 c-9 -15 13 -23 65 -23 55 0 80 10 59 23 -19 12 -116 11
-124 0z"/>
<path d="M14995 18128 c-171 -16 -177 -28 -10 -23 151 4 195 10 195 26 0 10
-47 10 -185 -3z"/>
<path d="M13780 18110 c0 -5 14 -10 30 -10 17 0 30 5 30 10 0 6 -13 10 -30 10
-16 0 -30 -4 -30 -10z"/>
<path d="M16520 18109 c-30 -5 -67 -18 -83 -29 -15 -12 -55 -31 -89 -43 -80
-29 -91 -53 -21 -44 49 6 142 39 263 95 l65 31 -40 -1 c-22 0 -65 -4 -95 -9z"/>
<path d="M14541 18099 c-41 -5 -77 -12 -80 -15 -10 -11 255 3 275 14 23 14
-81 14 -195 1z"/>
<path d="M14225 18090 c-4 -6 7 -10 27 -10 25 0 29 3 18 10 -19 13 -37 13 -45
0z"/>
<path d="M14360 18090 c-12 -8 -9 -10 13 -10 16 0 26 4 22 10 -8 12 -16 12
-35 0z"/>
<path d="M15310 18076 c-30 -6 -61 -15 -67 -19 -21 -13 -14 -36 13 -43 30 -8
131 3 176 18 30 11 30 12 10 19 -12 5 -22 15 -22 24 0 18 -31 19 -110 1z"/>
<path d="M15541 18071 c-12 -8 -13 -12 -1 -26 12 -14 15 -14 28 -1 8 8 11 19
8 25 -9 13 -16 14 -35 2z"/>
<path d="M14070 18051 c0 -12 37 -21 92 -21 58 0 71 15 20 24 -54 9 -112 7
-112 -3z"/>
<path d="M13085 18021 c-27 -7 -24 -8 28 -15 65 -9 256 1 278 15 17 10 -261
10 -306 0z"/>
<path d="M14960 18018 c-16 -6 -20 -12 -12 -15 20 -7 121 7 127 18 8 12 -84
10 -115 -3z"/>
<path d="M15383 17995 c-42 -18 -45 -38 -3 -23 28 9 46 25 39 33 -2 2 -19 -3
-36 -10z"/>
<path d="M14497 17969 c8 -8 16 -8 30 0 16 9 14 10 -11 11 -22 0 -27 -3 -19
-11z"/>
<path d="M12210 17930 c-8 -5 -12 -12 -8 -15 12 -13 73 -21 103 -15 l30 7 -37
16 c-42 19 -66 21 -88 7z"/>
<path d="M16126 17919 c-14 -11 -30 -18 -35 -15 -5 4 -24 -2 -43 -13 -18 -11
-94 -34 -168 -51 -74 -18 -164 -41 -200 -51 -42 -13 -121 -23 -222 -29 -108
-7 -176 -16 -215 -29 l-57 -19 -29 24 c-34 28 -79 33 -75 7 4 -23 -28 -30
-210 -43 -206 -16 -260 -28 -132 -29 350 -4 905 68 1208 155 95 28 232 89 232
104 0 16 -26 11 -54 -11z"/>
<path d="M15325 17925 c-5 -2 -23 -6 -40 -10 l-30 -8 26 -7 c33 -10 101 2 107
18 3 11 -36 16 -63 7z"/>
<path d="M14880 17880 c0 -5 9 -10 20 -10 11 0 20 5 20 10 0 6 -9 10 -20 10
-11 0 -20 -4 -20 -10z"/>
<path d="M14372 17871 c-19 -12 8 -21 64 -21 48 0 57 -11 22 -28 -42 -20 58
-13 192 13 69 14 126 25 128 25 1 0 2 5 2 10 0 12 -389 14 -408 1z"/>
<path d="M11030 17863 c-25 -2 -51 -6 -59 -9 -22 -7 10 -36 78 -68 l59 -29 69
35 c67 35 144 57 206 59 31 1 31 1 7 9 -25 8 -272 10 -360 3z"/>
<path d="M11795 17861 c-17 -7 -14 -9 15 -15 19 -3 55 -20 80 -37 37 -25 51
-29 80 -24 29 5 140 69 140 81 0 8 -295 2 -315 -5z"/>
<path d="M13242 17849 c-15 -5 -22 -16 -20 -26 5 -30 99 -54 229 -60 127 -6
169 -1 169 22 0 22 20 18 46 -10 22 -24 29 -25 132 -25 60 0 124 3 141 6 66
14 25 24 -106 26 -113 2 -138 6 -138 18 0 18 -32 24 -225 44 -175 18 -196 19
-228 5z"/>
<path d="M12860 17801 c0 -12 37 -21 90 -21 55 0 92 9 84 21 -7 12 -174 12
-174 0z"/>
<path d="M11378 17793 c18 -2 45 -2 60 0 15 2 0 4 -33 4 -33 0 -45 -2 -27 -4z"/>
<path d="M15995 17791 c-11 -5 -87 -25 -170 -46 -222 -56 -227 -78 -6 -29 127
29 221 60 221 75 0 11 -17 11 -45 0z"/>
<path d="M3700 17771 c0 -15 68 -42 123 -48 66 -7 55 9 -27 37 -63 21 -96 25
-96 11z"/>
<path d="M3981 17765 c-27 -12 -31 -18 -22 -29 17 -20 90 -36 163 -36 l63 0
-51 24 c-28 13 -54 31 -57 40 -8 20 -50 20 -96 1z"/>
<path d="M10555 17770 c-4 -6 5 -10 19 -10 14 0 26 5 26 10 0 6 -9 10 -19 10
-11 0 -23 -4 -26 -10z"/>
<path d="M2305 17716 c11 -7 31 -16 45 -20 l25 -7 -24 20 c-13 12 -33 21 -44
21 -21 0 -21 0 -2 -14z"/>
<path d="M2427 17724 c-11 -11 13 -34 35 -34 13 0 18 6 16 18 -3 17 -38 29
-51 16z"/>
<path d="M11998 17723 c12 -2 32 -2 45 0 12 2 2 4 -23 4 -25 0 -35 -2 -22 -4z"/>
<path d="M12433 17723 c9 -2 25 -2 35 0 9 3 1 5 -18 5 -19 0 -27 -2 -17 -5z"/>
<path d="M4360 17696 c0 -16 84 -51 146 -61 37 -6 38 -6 19 10 -27 23 -121 65
-145 65 -11 0 -20 -6 -20 -14z"/>
<path d="M4580 17701 c0 -16 58 -58 103 -76 24 -9 61 -15 83 -13 l39 3 -94 48
c-91 45 -131 57 -131 38z"/>
<path d="M5429 17690 c30 -26 49 -26 26 0 -10 11 -25 20 -34 20 -12 -1 -10 -5
8 -20z"/>
<path d="M10830 17700 c0 -5 9 -10 20 -10 11 0 20 5 20 10 0 6 -9 10 -20 10
-11 0 -20 -4 -20 -10z"/>
<path d="M10920 17700 c0 -5 9 -10 20 -10 11 0 20 5 20 10 0 6 -9 10 -20 10
-11 0 -20 -4 -20 -10z"/>
<path d="M13007 17703 c18 -2 50 -2 70 0 21 2 7 4 -32 4 -38 0 -55 -2 -38 -4z"/>
<path d="M13240 17694 c-43 -20 -26 -29 36 -19 28 4 44 11 41 18 -6 18 -38 18
-77 1z"/>
<path d="M3125 17680 c-4 -6 5 -10 20 -10 15 0 24 4 20 10 -3 6 -12 10 -20 10
-8 0 -17 -4 -20 -10z"/>
<path d="M13933 17683 c26 -2 67 -2 90 0 23 2 2 3 -48 3 -49 0 -68 -1 -42 -3z"/>
<path d="M15333 17670 c-62 -3 -118 -11 -124 -17 -33 -33 95 -34 231 -2 135
31 127 33 -107 19z"/>
<path d="M15952 17669 c-13 -5 -21 -13 -17 -18 7 -12 47 1 53 17 4 14 -4 14
-36 1z"/>
<path d="M16192 17645 c-38 -19 -76 -43 -83 -52 -13 -15 -11 -16 20 -10 33 7
145 69 156 88 12 18 -24 8 -93 -26z"/>
<path d="M5320 17663 c-8 -3 -19 -12 -23 -20 -7 -11 -27 -12 -97 -7 -89 7 -89
7 -83 -16 6 -22 4 -22 -46 -15 -69 9 -68 -10 2 -24 84 -17 216 -31 289 -31 54
0 68 3 68 15 0 8 -4 15 -10 15 -5 0 -10 18 -10 39 0 26 -5 41 -16 45 -19 7
-53 7 -74 -1z"/>
<path d="M15112 17658 c-14 -14 -16 -38 -3 -38 15 0 30 25 22 38 -5 9 -10 9
-19 0z"/>
<path d="M4140 17645 c-17 -20 9 -21 36 0 19 14 19 14 -2 15 -12 0 -27 -7 -34
-15z"/>
<path d="M15536 17634 c-39 -8 -73 -20 -78 -26 -11 -18 7 -22 44 -9 17 6 59
11 93 11 59 0 75 8 75 36 0 8 -64 2 -134 -12z"/>
<path d="M4910 17627 c0 -18 21 -37 41 -37 27 0 33 20 13 35 -24 18 -54 19
-54 2z"/>
<path d="M15743 17629 c38 -22 8 -38 -111 -59 -35 -6 -75 -16 -89 -23 -22 -10
-23 -12 -6 -18 46 -16 307 33 365 69 l28 18 -58 -4 c-45 -3 -61 0 -71 12 -7 9
-28 16 -45 16 -26 -1 -28 -2 -13 -11z"/>
<path d="M14715 17610 c-4 -6 5 -10 19 -10 14 0 26 5 26 10 0 6 -9 10 -19 10
-11 0 -23 -4 -26 -10z"/>
<path d="M15934 17555 c-29 -8 -67 -21 -85 -29 l-34 -14 40 -1 c22 -1 62 7 89
16 48 18 49 18 64 -5 15 -23 49 -28 87 -13 17 7 16 9 -13 15 -18 4 -37 16 -42
27 -12 22 -35 23 -106 4z"/>
<path d="M12429 17508 c-31 -12 -24 -38 10 -38 17 0 32 -4 36 -10 4 -7 62 24
83 45 7 7 -110 10 -129 3z"/>
<path d="M15264 17499 c-11 -19 25 -40 48 -28 11 6 17 16 15 22 -5 16 -53 21
-63 6z"/>
<path d="M14965 17470 c-7 -12 118 -12 155 0 17 5 -3 8 -62 9 -48 1 -90 -3
-93 -9z"/>
<path d="M10030 17452 c0 -5 11 -14 25 -20 26 -12 33 -4 13 16 -14 14 -38 16
-38 4z"/>
<path d="M14155 17450 c3 -5 15 -10 25 -10 10 0 22 5 25 10 4 6 -7 10 -25 10
-18 0 -29 -4 -25 -10z"/>
<path d="M10160 17436 c0 -10 9 -16 21 -16 24 0 21 23 -4 28 -10 2 -17 -3 -17
-12z"/>
<path d="M6405 17300 c-3 -5 -1 -18 4 -27 9 -16 10 -14 11 10 0 28 -5 34 -15
17z"/>
<path d="M6610 16945 c0 -22 4 -34 10 -30 6 3 10 17 10 30 0 13 -4 27 -10 30
-6 4 -10 -8 -10 -30z"/>
<path d="M6842 16655 c0 -16 2 -22 5 -12 2 9 2 23 0 30 -3 6 -5 -1 -5 -18z"/>
<path d="M6611 16511 c-1 -27 2 -32 11 -23 8 8 8 17 0 34 -10 22 -11 21 -11
-11z"/>
<path d="M6880 16516 c0 -14 5 -26 10 -26 6 0 10 9 10 19 0 11 -4 23 -10 26
-6 4 -10 -5 -10 -19z"/>
<path d="M6503 16465 c0 -33 2 -45 4 -27 2 18 2 45 0 60 -2 15 -4 0 -4 -33z"/>
<path d="M6842 16460 c0 -19 2 -27 5 -17 2 9 2 25 0 35 -3 9 -5 1 -5 -18z"/>
<path d="M6510 16211 c0 -54 11 -102 21 -95 10 6 12 78 3 112 -10 35 -24 26
-24 -17z"/>
<path d="M6871 16164 c-1 -89 17 -272 29 -293 6 -10 9 51 9 164 0 144 -2 176
-11 160 -12 -19 -13 -18 -19 10 -5 21 -7 8 -8 -41z"/>
<path d="M6591 16045 c-2 -141 34 -586 50 -617 8 -14 14 -16 29 -8 10 5 21 10
25 10 3 0 3 -48 0 -107 -4 -85 -3 -103 6 -83 14 32 5 331 -11 377 -7 20 -19
33 -33 35 -20 3 -22 8 -19 58 3 68 -15 254 -33 335 l-13 60 -1 -60z"/>
<path d="M7157 16085 c-8 -26 5 -87 21 -93 15 -5 14 21 -2 73 -10 33 -13 36
-19 20z"/>
<path d="M6523 16057 c4 -9 1 -52 -5 -96 -9 -65 -8 -86 5 -127 9 -27 21 -77
28 -112 6 -34 16 -65 21 -68 20 -13 -23 391 -43 410 -9 8 -10 6 -6 -7z"/>
<path d="M6933 16030 c0 -25 2 -35 4 -22 2 12 2 32 0 45 -2 12 -4 2 -4 -23z"/>
<path d="M7056 15856 c3 -110 16 -269 35 -415 19 -147 29 -268 27 -320 -2 -56
1 -86 8 -88 41 -14 32 214 -26 687 -41 329 -51 359 -44 136z"/>
<path d="M7181 15870 c0 -37 2 -41 9 -22 6 13 6 31 0 45 -7 18 -9 14 -9 -23z"/>
<path d="M6946 15754 c-5 -13 -9 -14 -21 -4 -13 11 -15 6 -15 -31 0 -39 16
-174 36 -306 8 -53 17 -54 31 -5 l10 37 3 -40 c1 -22 6 -53 11 -70 5 -19 7 17
5 95 -2 69 -8 136 -14 150 -9 24 -10 24 -17 -13 -12 -63 -17 -35 -16 87 2 114
-1 132 -13 100z"/>
<path d="M7200 15710 c0 -69 8 -110 20 -110 16 0 19 32 9 87 -17 89 -28 98
-29 23z"/>
<path d="M6843 15605 c0 -38 2 -53 4 -32 2 20 2 52 0 70 -2 17 -4 1 -4 -38z"/>
<path d="M6487 15573 c-11 -20 -16 -83 -8 -104 l9 -24 11 28 c13 34 14 94 2
102 -5 3 -12 2 -14 -2z"/>
<path d="M15240 15495 c-14 -17 -5 -36 15 -28 16 6 21 43 6 43 -5 0 -14 -7
-21 -15z"/>
<path d="M7220 15451 c0 -11 5 -23 10 -26 6 -4 10 5 10 19 0 14 -4 26 -10 26
-5 0 -10 -9 -10 -19z"/>
<path d="M6860 15427 c0 -23 4 -36 10 -32 13 8 13 35 0 55 -7 11 -10 5 -10
-23z"/>
<path d="M6600 15280 c-14 -58 0 -157 21 -145 12 8 12 182 0 189 -5 3 -14 -16
-21 -44z"/>
<path d="M7092 15155 c0 -16 2 -22 5 -12 2 9 2 23 0 30 -3 6 -5 -1 -5 -18z"/>
<path d="M7205 15107 c6 -81 23 -143 32 -118 7 17 -16 162 -29 181 -6 10 -7
-12 -3 -63z"/>
<path d="M7020 15080 c0 -39 3 -51 10 -40 5 8 10 26 10 40 0 14 -5 32 -10 40
-7 11 -10 -1 -10 -40z"/>
<path d="M6970 15060 c0 -11 5 -20 10 -20 6 0 10 9 10 20 0 11 -4 20 -10 20
-5 0 -10 -9 -10 -20z"/>
<path d="M6630 14948 c0 -104 8 -148 21 -126 17 25 5 218 -12 218 -5 0 -9 -42
-9 -92z"/>
<path d="M7160 14931 c0 -14 9 -142 20 -285 24 -309 43 -399 35 -166 -7 180
-32 436 -45 459 -8 13 -9 12 -10 -8z"/>
<path d="M7002 14890 c0 -19 2 -27 5 -17 2 9 2 25 0 35 -3 9 -5 1 -5 -18z"/>
<path d="M7225 14869 c-8 -45 -3 -94 10 -93 14 1 55 75 55 98 0 18 -1 18 -20
1 -19 -17 -20 -17 -29 6 -8 23 -9 22 -16 -12z"/>
<path d="M6663 14695 c0 -22 2 -30 4 -17 2 12 2 30 0 40 -3 9 -5 -1 -4 -23z"/>
<path d="M6841 14676 c-9 -10 -8 -16 4 -26 19 -16 41 1 32 24 -8 20 -21 20
-36 2z"/>
<path d="M6837 14540 c-7 -26 6 -73 21 -78 17 -5 26 46 13 74 -13 29 -27 31
-34 4z"/>
<path d="M6680 14400 c0 -29 3 -51 6 -47 8 7 7 87 0 95 -3 3 -6 -19 -6 -48z"/>
<path d="M7156 14433 c-4 -9 -2 -21 4 -27 7 -7 10 -2 10 17 0 31 -5 34 -14 10z"/>
<path d="M6846 14400 c4 -19 10 -73 14 -120 l7 -85 1 95 c1 68 -3 102 -14 120
-15 25 -15 25 -8 -10z"/>
<path d="M9290 13996 c0 -14 5 -26 10 -26 6 0 10 9 10 19 0 11 -4 23 -10 26
-6 4 -10 -5 -10 -19z"/>
<path d="M9270 13855 c0 -15 4 -24 10 -20 6 3 10 12 10 20 0 8 -4 17 -10 20
-6 4 -10 -5 -10 -20z"/>
<path d="M9125 13849 c-24 -37 -11 -209 15 -209 19 0 11 -69 -10 -87 -18 -17
-18 -22 -5 -58 10 -27 14 -86 15 -181 0 -122 2 -143 16 -148 15 -6 15 -8 0
-25 -17 -18 -16 -22 5 -68 l23 -48 7 55 c4 30 2 127 -4 215 -12 164 -12 203
-1 337 4 64 2 89 -15 138 -12 33 -21 67 -21 75 0 17 -16 20 -25 4z"/>
<path d="M9303 13675 c0 -38 2 -53 4 -32 2 20 2 52 0 70 -2 17 -4 1 -4 -38z"/>
<path d="M7913 13505 c0 -22 2 -30 4 -17 2 12 2 30 0 40 -3 9 -5 -1 -4 -23z"/>
<path d="M9091 13235 c0 -48 3 -64 9 -50 5 11 9 34 9 50 0 17 -4 39 -9 50 -6
14 -9 -2 -9 -50z"/>
<path d="M7911 13124 c-1 -117 6 -174 20 -174 13 0 9 178 -6 235 -13 50 -13
50 -14 -61z"/>
<path d="M9137 12979 c-9 -32 -7 -337 2 -369 5 -16 10 22 14 99 9 154 8 250
-2 275 -7 18 -8 18 -14 -5z"/>
<path d="M7817 12910 c-9 -106 -8 -368 2 -435 11 -74 23 340 13 440 l-8 80 -7
-85z"/>
<path d="M7890 12786 c0 -18 16 -29 30 -21 13 8 1 35 -16 35 -8 0 -14 -6 -14
-14z"/>
<path d="M9270 12748 c0 -16 5 -28 10 -28 13 0 13 20 0 40 -8 12 -10 9 -10
-12z"/>
<path d="M7754 12510 c0 -96 2 -136 3 -87 2 48 2 126 0 175 -1 48 -3 8 -3 -88z"/>
<path d="M7912 12390 c0 -19 2 -27 5 -17 2 9 2 25 0 35 -3 9 -5 1 -5 -18z"/>
<path d="M7690 12189 c-9 -77 -10 -113 -2 -121 15 -15 29 -3 36 33 7 38 -4
199 -14 199 -4 0 -13 -50 -20 -111z"/>
<path d="M7412 12140 c0 -19 2 -27 5 -17 2 9 2 25 0 35 -3 9 -5 1 -5 -18z"/>
<path d="M9251 12020 c-1 -99 15 -256 29 -279 13 -22 13 26 -1 183 -14 165
-27 210 -28 96z"/>
<path d="M6847 11880 c-12 -153 -78 -1659 -77 -1763 1 -47 15 -16 34 73 37
177 54 487 62 1175 3 284 2 530 -3 555 -9 44 -9 44 -16 -40z"/>
<path d="M7680 11799 c0 -24 23 -21 28 4 2 10 -3 17 -12 17 -10 0 -16 -9 -16
-21z"/>
<path d="M7360 11695 c0 -22 4 -34 10 -30 6 3 10 17 10 30 0 13 -4 27 -10 30
-6 4 -10 -8 -10 -30z"/>
<path d="M7366 11534 c-17 -44 3 -224 25 -224 10 0 12 182 3 218 -7 26 -19 29
-28 6z"/>
<path d="M6636 11443 c-8 -27 -26 -186 -22 -190 5 -5 46 167 46 191 0 21 -17
21 -24 -1z"/>
<path d="M7347 11206 c-9 -24 -8 -499 2 -556 l8 -45 9 30 c12 39 9 521 -3 560
-8 24 -10 26 -16 11z"/>
<path d="M6707 11063 c-4 -3 -7 -14 -7 -24 0 -9 -18 -38 -40 -65 -45 -55 -56
-98 -64 -244 -5 -75 -4 -88 5 -60 47 162 71 230 79 230 6 0 10 -54 10 -135 0
-79 4 -135 10 -135 11 0 15 20 40 223 26 208 26 217 -3 217 -13 0 -27 -3 -30
-7z"/>
<path d="M7021 10960 c0 -29 1 -32 10 -17 7 11 7 23 0 35 -9 14 -10 11 -10
-18z"/>
<path d="M7432 10915 c0 -63 1 -67 10 -34 6 23 6 48 0 70 -9 30 -10 26 -10
-36z"/>
<path d="M7110 10814 c0 -52 4 -83 10 -79 15 9 23 71 16 120 -12 74 -26 51
-26 -41z"/>
<path d="M7233 10850 c0 -30 2 -43 4 -27 2 15 2 39 0 55 -2 15 -4 2 -4 -28z"/>
<path d="M6902 10809 c-5 -13 -12 -40 -16 -59 -7 -33 -6 -34 8 -16 17 21 32
83 22 93 -3 3 -9 -5 -14 -18z"/>
<path d="M6682 10550 c0 -19 2 -27 5 -17 2 9 2 25 0 35 -3 9 -5 1 -5 -18z"/>
<path d="M7330 10486 c0 -42 9 -68 21 -60 10 6 12 54 3 78 -11 28 -24 17 -24
-18z"/>
<path d="M6713 10408 c-6 -7 -18 -28 -28 -47 -9 -19 -28 -44 -42 -57 l-24 -22
20 -41 c12 -22 21 -47 21 -55 0 -22 40 -42 50 -26 11 17 34 157 34 209 1 45
-13 62 -31 39z"/>
<path d="M7003 10345 c0 -22 2 -30 4 -17 2 12 2 30 0 40 -3 9 -5 -1 -4 -23z"/>
<path d="M7323 10210 c0 -36 2 -50 4 -32 2 17 2 47 0 65 -2 17 -4 3 -4 -33z"/>
<path d="M7073 9595 c0 -22 2 -30 4 -17 2 12 2 30 0 40 -3 9 -5 -1 -4 -23z"/>
<path d="M6788 9456 c-14 -23 -31 -60 -37 -82 -33 -123 -73 -596 -52 -617 8
-8 11 -7 11 4 1 42 21 162 29 177 9 14 12 12 22 -16 6 -18 13 -31 15 -29 3 2
13 55 23 116 11 61 26 122 34 134 18 29 26 72 16 89 -7 10 -9 10 -9 1 0 -7 -4
-13 -10 -13 -5 0 -11 57 -12 138 l-3 139 -27 -41z"/>
<path d="M7182 9420 c0 -45 1 -50 8 -27 5 15 5 39 0 55 -7 22 -8 17 -8 -28z"/>
<path d="M6950 9390 c0 -18 4 -29 10 -25 6 3 10 15 10 25 0 10 -4 22 -10 25
-6 4 -10 -7 -10 -25z"/>
<path d="M6603 9347 c-5 -29 -16 -66 -24 -84 -11 -28 -11 -36 6 -67 16 -29 17
-39 7 -61 -15 -32 -15 -104 -2 -175 23 -119 39 -154 54 -115 9 24 46 362 47
436 2 73 -4 89 -28 89 -9 0 -24 7 -33 15 -14 13 -17 9 -27 -38z"/>
<path d="M6896 9338 c-4 -13 -9 -81 -12 -153 -3 -97 -2 -124 6 -105 11 25 27
280 18 280 -3 0 -9 -10 -12 -22z"/>
<path d="M7047 9330 c-3 -11 -1 -33 3 -48 7 -23 8 -21 9 21 1 50 -3 60 -12 27z"/>
<path d="M6683 8550 c0 -25 2 -35 4 -22 2 12 2 32 0 45 -2 12 -4 2 -4 -23z"/>
<path d="M6860 8510 c0 -32 4 -49 10 -45 6 3 10 24 10 45 0 21 -4 42 -10 45
-6 4 -10 -13 -10 -45z"/>
<path d="M6632 8475 c-15 -97 -26 -407 -12 -355 14 52 32 284 28 365 l-3 70
-13 -80z"/>
<path d="M6914 8440 c0 -58 1 -81 3 -52 2 28 2 76 0 105 -2 28 -3 5 -3 -53z"/>
<path d="M6685 8447 c-4 -8 -5 -26 -3 -39 4 -23 4 -23 18 5 10 21 11 30 2 39
-8 8 -13 7 -17 -5z"/>
<path d="M6683 8235 c0 -27 2 -38 4 -22 2 15 2 37 0 50 -2 12 -4 0 -4 -28z"/>
<path d="M6986 8093 c-11 -11 -6 -49 9 -69 13 -18 14 -16 15 23 0 40 -10 60
-24 46z"/>
<path d="M6611 7910 c0 -33 1 -34 11 -12 8 17 8 26 0 34 -9 9 -12 4 -11 -22z"/>
<path d="M7002 7375 c0 -16 2 -22 5 -12 2 9 2 23 0 30 -3 6 -5 -1 -5 -18z"/>
<path d="M7093 6775 c0 -22 2 -30 4 -17 2 12 2 30 0 40 -3 9 -5 -1 -4 -23z"/>
<path d="M6567 5914 c-4 -36 -3 -94 1 -128 l7 -61 6 55 c10 81 10 200 0 200
-4 0 -11 -30 -14 -66z"/>
<path d="M7002 5640 c0 -19 2 -27 5 -17 2 9 2 25 0 35 -3 9 -5 1 -5 -18z"/>
<path d="M9001 5585 c0 -28 6 -68 13 -90 l12 -40 7 37 c8 39 -5 114 -22 131
-8 8 -11 -3 -10 -38z"/>
<path d="M6970 5510 c0 -11 5 -20 10 -20 6 0 10 9 10 20 0 11 -4 20 -10 20 -5
0 -10 -9 -10 -20z"/>
<path d="M6547 5403 c-20 -126 -56 -565 -58 -698 -1 -76 -1 -78 -14 -50 -7 17
-18 64 -24 104 -13 99 -71 181 -110 157 -30 -19 -111 -645 -96 -744 8 -53 27
-51 38 4 16 73 22 89 41 92 10 2 22 0 28 -6 5 -5 14 -69 19 -143 10 -132 20
-169 39 -139 17 27 30 109 50 313 12 111 23 207 25 212 2 6 4 -111 5 -260 1
-163 5 -256 10 -235 15 63 31 379 39 742 7 300 10 361 24 381 12 19 13 27 4
36 -8 8 -12 55 -12 142 0 71 -1 129 -1 129 -1 0 -4 -17 -7 -37z m-150 -745
c-2 -18 -4 -4 -4 32 0 36 2 50 4 33 2 -18 2 -48 0 -65z m-26 -211 c-8 -8 -11
-3 -11 19 1 25 2 27 11 11 8 -14 8 -22 0 -30z m-11 -132 c-7 -8 -22 -15 -34
-15 -21 1 -21 1 -2 15 27 21 53 20 36 0z"/>
<path d="M6752 5300 c0 -19 2 -27 5 -17 2 9 2 25 0 35 -3 9 -5 1 -5 -18z"/>
<path d="M6970 5286 c0 -14 5 -26 10 -26 6 0 10 9 10 19 0 11 -4 23 -10 26 -6
4 -10 -5 -10 -19z"/>
<path d="M6741 5197 c-24 -63 -25 -327 -1 -327 14 0 21 43 27 181 4 89 2 142
-5 155 -10 18 -11 17 -21 -9z"/>
<path d="M6572 5050 c0 -19 2 -27 5 -17 2 9 2 25 0 35 -3 9 -5 1 -5 -18z"/>
<path d="M6617 5043 c-2 -5 -7 -20 -11 -35 -3 -16 -11 -28 -16 -28 -12 0 -13
-80 -1 -98 11 -17 66 130 58 153 -7 16 -23 20 -30 8z"/>
<path d="M7085 4950 c-8 -25 -21 -26 -30 -2 -18 44 -27 -50 -32 -318 -6 -299
4 -452 31 -479 13 -12 16 -11 21 12 4 14 5 75 3 135 -2 87 -7 114 -20 129 -24
26 -23 59 1 66 21 5 26 44 37 320 6 149 3 182 -11 137z"/>
<path d="M6940 4820 c-6 -11 -17 -84 -25 -162 -14 -134 -23 -198 -61 -438 -8
-52 -19 -99 -26 -105 -11 -10 -11 -7 12 250 10 112 -1 270 -20 289 -11 11 -35
-40 -45 -96 -9 -49 -19 -48 -34 2 -15 51 -41 54 -41 6 0 -19 -4 -38 -10 -41
-5 -3 -10 -1 -10 5 0 6 -4 9 -8 6 -16 -9 -22 -217 -12 -353 14 -183 38 -234
60 -125 6 31 17 80 24 107 l13 50 8 -40 c4 -22 20 -62 35 -90 27 -49 28 -53
32 -263 3 -127 9 -217 16 -224 13 -13 22 16 32 106 7 71 7 71 15 29 4 -24 11
-43 15 -43 20 0 40 254 49 641 5 223 11 341 19 356 13 23 16 110 6 137 -8 22
-31 20 -44 -4z"/>
<path d="M8844 4680 c7 -138 20 -280 33 -362 8 -52 -9 -48 -35 10 l-21 47 5
-185 c2 -102 7 -213 10 -247 l6 -63 39 0 c37 0 39 -2 39 -30 0 -16 5 -30 10
-30 15 0 12 71 -11 220 -30 193 -32 222 -19 269 8 30 15 41 26 37 19 -7 18 33
-2 148 -17 98 -71 317 -81 326 -3 3 -2 -60 1 -140z"/>
<path d="M8991 4757 c-13 -35 -13 -33 0 -82 10 -34 13 -37 20 -20 11 28 11 97
-1 115 -7 11 -11 9 -19 -13z"/>
<path d="M6221 4542 c-30 -57 -54 -242 -31 -242 17 0 30 38 30 87 0 26 4 75
10 107 10 65 8 79 -9 48z"/>
<path d="M7001 3955 c1 -45 22 -114 31 -99 8 12 -11 116 -23 129 -5 5 -9 -6
-8 -30z"/>
<path d="M8565 3919 c-8 -36 2 -119 15 -119 14 0 21 50 14 96 -8 55 -20 64
-29 23z"/>
<path d="M7004 3788 c-12 -19 -9 -134 6 -202 19 -93 34 -47 28 86 -6 107 -17
145 -34 116z"/>
<path d="M8950 3766 c0 -14 5 -26 10 -26 6 0 10 9 10 19 0 11 -4 23 -10 26 -6
4 -10 -5 -10 -19z"/>
<path d="M8780 3694 c-21 -100 3 -341 42 -418 13 -25 24 -77 30 -140 29 -300
50 -297 37 5 -12 255 -24 363 -56 484 -35 135 -38 140 -53 69z"/>
<path d="M8701 3653 c-15 -54 -13 -242 3 -351 15 -98 12 -125 -23 -182 -28
-46 -27 -55 13 -147 41 -94 52 -143 37 -172 -17 -31 -40 -26 -47 9 -15 71 -24
18 -24 -135 0 -91 2 -165 5 -165 2 0 9 18 15 40 20 73 35 50 45 -65 12 -140
38 -330 46 -339 20 -22 31 66 41 314 9 246 5 563 -8 617 -4 13 -12 23 -19 23
-23 0 -27 32 -36 280 -9 258 -14 310 -29 310 -5 0 -14 -17 -19 -37z"/>
<path d="M8844 3675 c-7 -17 4 -37 17 -30 12 8 12 45 -1 45 -6 0 -13 -7 -16
-15z"/>
<path d="M6483 3530 c0 -30 2 -43 4 -27 2 15 2 39 0 55 -2 15 -4 2 -4 -28z"/>
<path d="M6842 3480 c0 -19 2 -27 5 -17 2 9 2 25 0 35 -3 9 -5 1 -5 -18z"/>
<path d="M6496 3272 c-9 -105 3 -308 15 -257 9 40 9 249 0 305 -7 42 -8 38
-15 -48z"/>
<path d="M9002 3105 c0 -16 2 -22 5 -12 2 9 2 23 0 30 -3 6 -5 -1 -5 -18z"/>
<path d="M7212 3058 c5 -32 28 -35 28 -4 0 17 -5 26 -16 26 -10 0 -14 -7 -12
-22z"/>
<path d="M8414 3036 c6 -39 3 -55 -20 -100 -30 -60 -28 -106 6 -106 10 0 22
-4 25 -10 8 -14 -7 -35 -25 -35 -8 0 -17 -13 -21 -30 -5 -24 -7 -27 -13 -12
-5 9 -14 17 -22 17 -22 0 -17 -57 8 -102 19 -33 20 -42 9 -60 -17 -28 -30
-215 -31 -458 -1 -232 -8 -293 -37 -319 -15 -14 -23 -43 -33 -112 -16 -118
-44 -220 -65 -235 -15 -11 -15 -17 -1 -72 20 -76 21 -113 2 -106 -8 3 -16 -4
-19 -18 -22 -86 -47 -558 -29 -528 13 20 29 120 42 265 6 66 20 155 31 198 11
43 26 125 34 184 18 125 24 153 35 153 19 0 18 -40 -5 -198 -31 -211 -78 -619
-73 -634 4 -10 98 256 98 275 0 4 -9 3 -19 -3 -20 -10 -20 -10 -1 32 10 24 26
86 36 138 21 119 30 138 40 85 7 -40 -1 -258 -13 -310 -5 -26 -4 -28 9 -17 38
31 76 253 88 507 5 99 14 200 20 225 15 54 26 1245 13 1355 l-8 70 -34 3 -33
3 6 -45z m56 -141 c0 -8 -4 -17 -10 -20 -6 -4 -10 5 -10 20 0 15 4 24 10 20 6
-3 10 -12 10 -20z m-26 -417 c8 -33 7 -61 -4 -78 -9 -13 -11 -13 -20 0 -11 17
-13 83 -3 93 12 12 21 7 27 -15z m-15 -448 c0 -65 -2 -90 -9 -80 -5 8 -9 78
-8 155 1 113 2 128 8 80 4 -33 8 -103 9 -155z m-17 -472 c5 -53 -10 -186 -24
-211 -12 -19 -13 -13 -16 57 -3 81 13 186 28 186 5 0 10 -15 12 -32z"/>
<path d="M9020 3018 c0 -16 5 -28 10 -28 13 0 13 20 0 40 -8 12 -10 9 -10 -12z"/>
<path d="M8260 2907 c0 -32 9 -57 22 -57 14 0 5 73 -9 78 -8 2 -13 -6 -13 -21z"/>
<path d="M9017 2665 c-16 -606 -18 -860 -9 -845 29 44 50 941 26 1065 -8 40
-11 -2 -17 -220z"/>
<path d="M8548 2865 c-12 -64 -10 -921 2 -909 7 7 9 173 8 480 -2 258 -6 451
-10 429z"/>
<path d="M8591 2863 c0 -29 2 -33 8 -18 7 18 4 55 -5 55 -2 0 -4 -17 -3 -37z"/>
<path d="M7231 2874 c-1 -6 -8 -76 -17 -155 -17 -148 -13 -341 6 -364 6 -7 15
-110 20 -231 6 -120 13 -228 16 -240 5 -21 -11 -42 -23 -30 -3 3 -9 39 -13 81
-4 43 -14 83 -22 93 -23 26 -28 58 -38 251 -9 182 -15 215 -32 205 -7 -4 -8
-39 -4 -93 3 -47 11 -201 16 -341 6 -140 15 -306 21 -368 12 -126 6 -145 -40
-140 -24 3 -26 7 -32 68 -4 36 -7 133 -8 215 -2 255 -26 465 -53 465 -8 0 -9
-30 -5 -100 3 -55 2 -100 -2 -100 -4 0 -15 21 -23 48 l-16 47 -2 -155 c-3
-165 -9 -224 -24 -202 -4 8 -8 77 -7 155 1 163 -7 253 -20 222 -4 -11 -8 -112
-9 -225 -1 -124 -5 -197 -10 -185 -5 11 -9 36 -9 55 -1 19 -5 41 -10 48 -12
20 -21 -31 -31 -182 -13 -180 -35 -198 -50 -40 -8 88 -12 100 -29 90 -6 -4 -8
-33 -4 -75 4 -54 2 -74 -11 -92 -10 -15 -16 -43 -15 -79 1 -55 1 -55 13 -22
15 42 26 31 26 -25 0 -23 5 -43 10 -43 6 0 10 7 10 15 0 24 17 17 24 -9 3 -14
11 -69 16 -123 13 -121 4 -225 -21 -257 -24 -31 -24 -35 5 -46 28 -10 33 -31
42 -180 4 -58 10 -111 14 -119 4 -8 11 39 14 105 4 65 9 129 12 142 8 41 24
12 25 -46 1 -73 13 -169 22 -178 16 -16 21 16 32 194 l12 187 17 -40 c35 -84
35 -83 35 -23 1 67 16 84 27 30 l7 -37 8 40 c4 22 9 72 9 110 l2 70 19 -88
c19 -92 64 -207 54 -138 -3 18 0 52 6 74 17 63 29 27 29 -88 0 -55 5 -141 10
-191 15 -144 27 -158 57 -66 15 44 25 58 42 60 14 2 26 14 33 33 5 16 18 34
28 39 17 9 19 33 24 338 3 180 9 417 12 527 6 210 -10 533 -26 549 -7 7 -10
-59 -11 -190 -1 -109 -4 -212 -8 -229 l-7 -30 -7 32 c-3 17 -9 109 -13 203 -7
158 -8 169 -21 139 -26 -62 -35 -19 -44 213 -4 125 -15 259 -24 306 -15 79
-33 139 -34 116z m-171 -1060 c0 -13 -4 -24 -10 -24 -5 0 -10 14 -10 31 0 17
4 28 10 24 6 -3 10 -17 10 -31z m-16 -101 c13 -47 17 -131 10 -196 l-8 -72
-12 120 c-7 66 -13 130 -13 143 -1 26 15 30 23 5z m-107 -310 c-3 -10 -5 -4
-5 12 0 17 2 24 5 18 2 -7 2 -21 0 -30z"/>
<path d="M8251 2704 c-1 -44 3 -65 14 -74 13 -11 15 -8 14 21 0 19 -6 52 -14
74 l-13 40 -1 -61z"/>
<path d="M8587 2395 c-8 -310 -21 -478 -42 -548 -8 -27 -20 -100 -26 -161 -44
-457 -86 -765 -121 -891 -21 -78 -40 -207 -36 -245 3 -19 9 -8 26 42 13 38 26
68 29 68 3 0 3 -31 0 -69 l-6 -69 26 7 c19 5 29 17 38 47 6 22 17 49 23 59 10
17 11 12 12 -32 0 -54 12 -68 28 -35 10 18 54 312 71 472 23 208 51 962 36
948 -4 -4 -11 -87 -16 -185 -9 -204 -17 -273 -30 -273 -5 0 -10 28 -10 63 -1
34 -4 91 -8 127 l-7 65 -8 -95 c-7 -77 -10 -90 -18 -70 -5 14 -8 56 -5 93 3
54 9 73 28 93 l24 26 3 301 c4 446 -1 587 -11 262z m-47 -985 c0 -22 -4 -40
-10 -40 -5 0 -10 18 -10 40 0 22 5 40 10 40 6 0 10 -18 10 -40z m63 -3 c3 -8
1 -20 -4 -28 -6 -10 -9 -7 -9 14 0 29 5 35 13 14z m-96 -204 c-3 -10 -5 -4 -5
12 0 17 2 24 5 18 2 -7 2 -21 0 -30z m71 -25 c-9 -19 -28 -24 -28 -8 0 5 5 21
12 35 11 24 13 25 19 8 3 -10 2 -26 -3 -35z m-91 -140 c-2 -13 -4 -5 -4 17 -1
22 1 32 4 23 2 -10 2 -28 0 -40z m73 15 c-1 -31 -3 -35 -11 -20 -6 9 -7 26 -4
37 10 30 15 24 15 -17z m-90 -149 c0 -13 -4 -24 -10 -24 -5 0 -10 14 -10 31 0
17 4 28 10 24 6 -3 10 -17 10 -31z"/>
<path d="M7110 2583 c0 -51 12 -69 24 -37 10 26 7 49 -9 70 -13 17 -14 15 -15
-33z"/>
<path d="M6614 2535 c3 -27 8 -119 12 -203 3 -84 10 -155 15 -158 16 -9 15
225 -1 330 -12 76 -35 103 -26 31z"/>
<path d="M6742 2437 c3 -94 9 -141 17 -150 11 -10 12 14 9 126 -3 94 -9 141
-17 150 -11 10 -12 -14 -9 -126z"/>
<path d="M6912 2410 c0 -19 2 -27 5 -17 2 9 2 25 0 35 -3 9 -5 1 -5 -18z"/>
<path d="M8936 2383 c-6 -23 -22 -228 -37 -488 -11 -208 -18 -256 -68 -490
-29 -135 -71 -409 -71 -460 0 -30 29 -34 53 -7 44 49 82 310 107 727 14 241
32 727 26 732 -2 3 -7 -4 -10 -14z"/>
<path d="M8664 2210 c0 -58 1 -81 3 -52 2 28 2 76 0 105 -2 28 -3 5 -3 -53z"/>
<path d="M6563 2258 c-19 -24 -34 -82 -39 -153 -5 -65 -4 -73 20 -105 23 -30
25 -36 11 -46 -19 -14 -19 -34 0 -34 13 0 15 -17 14 -103 0 -73 4 -118 17
-156 14 -43 16 -74 11 -172 -3 -65 -4 -119 -2 -119 2 0 10 19 17 43 l12 42 7
-50 c5 -40 8 -46 14 -27 9 26 21 28 34 5 23 -42 22 5 -3 109 -26 110 -50 292
-80 612 -8 87 -17 160 -19 162 -2 3 -9 -1 -14 -8z"/>
<path d="M6762 2195 c-23 -83 -24 -96 -12 -184 13 -93 24 -112 37 -63 10 33 6
204 -6 252 l-8 35 -11 -40z"/>
<path d="M6342 2195 c0 -16 2 -22 5 -12 2 9 2 23 0 30 -3 6 -5 -1 -5 -18z"/>
<path d="M6866 2185 c-9 -25 -7 -203 3 -185 13 22 23 173 13 188 -7 11 -10 10
-16 -3z"/>
<path d="M6020 2163 c0 -21 3 -24 9 -14 5 8 7 20 4 28 -8 21 -13 15 -13 -14z"/>
<path d="M8770 2086 c0 -24 16 -43 27 -32 8 8 -6 56 -17 56 -6 0 -10 -11 -10
-24z"/>
<path d="M8110 2006 c0 -20 5 -36 10 -36 6 0 10 13 10 29 0 17 -4 33 -10 36
-6 4 -10 -8 -10 -29z"/>
<path d="M8756 1989 c-3 -17 -6 -61 -5 -98 0 -53 2 -61 10 -42 15 37 24 171
12 171 -6 0 -13 -14 -17 -31z"/>
<path d="M8800 1894 c-12 -32 -13 -102 -1 -88 7 8 31 91 31 108 0 17 -22 2
-30 -20z"/>
<path d="M8233 1800 c0 -30 2 -43 4 -27 2 15 2 39 0 55 -2 15 -4 2 -4 -28z"/>
<path d="M6433 1795 c0 -22 2 -30 4 -17 2 12 2 30 0 40 -3 9 -5 -1 -4 -23z"/>
<path d="M7110 1724 c0 -27 4 -43 10 -39 6 3 10 24 10 46 0 21 -4 39 -10 39
-5 0 -10 -21 -10 -46z"/>
<path d="M8786 1742 c-3 -6 -11 -45 -17 -88 -6 -44 -12 -80 -14 -82 -2 -2 -6
6 -10 18 -13 42 -30 14 -27 -45 1 -33 -4 -112 -13 -176 -21 -166 -18 -349 6
-349 28 0 85 393 91 617 2 97 -3 126 -16 105z"/>
<path d="M8720 1671 c0 -11 5 -23 10 -26 6 -4 10 5 10 19 0 14 -4 26 -10 26
-5 0 -10 -9 -10 -19z"/>
<path d="M6360 1644 c0 -31 23 -28 28 4 2 15 -2 22 -12 22 -11 0 -16 -9 -16
-26z"/>
<path d="M6446 1612 c-10 -63 2 -254 15 -246 10 6 10 224 0 269 -7 27 -8 26
-15 -23z"/>
<path d="M8180 1606 c0 -22 3 -27 11 -19 8 8 8 16 0 30 -9 16 -10 14 -11 -11z"/>
<path d="M6323 1500 c0 -25 2 -35 4 -22 2 12 2 32 0 45 -2 12 -4 2 -4 -23z"/>
<path d="M8102 1254 c-18 -86 -26 -203 -14 -185 14 20 35 167 31 211 -4 32 -5
29 -17 -26z"/>
<path d="M8053 1250 c0 -25 2 -35 4 -22 2 12 2 32 0 45 -2 12 -4 2 -4 -23z"/>
<path d="M6483 1235 c0 -27 2 -38 4 -22 2 15 2 37 0 50 -2 12 -4 0 -4 -28z"/>
<path d="M6823 1165 c0 -38 2 -53 4 -32 2 20 2 52 0 70 -2 17 -4 1 -4 -38z"/>
<path d="M6332 1208 c-15 -15 -15 -38 -2 -58 9 -13 11 -13 20 0 22 33 6 82
-18 58z"/>
<path d="M6772 1120 c0 -59 1 -62 10 -32 8 22 8 42 0 65 -9 29 -10 26 -10 -33z"/>
<path d="M6664 1065 c-10 -39 -11 -362 -1 -397 24 -90 42 44 34 249 -6 148
-19 205 -33 148z"/>
<path d="M6357 1060 c-14 -52 -1 -353 14 -328 11 16 11 258 1 313 -7 36 -8 38
-15 15z"/>
<path d="M8073 955 c0 -27 2 -38 4 -22 2 15 2 37 0 50 -2 12 -4 0 -4 -28z"/>
<path d="M6503 955 c0 -22 2 -30 4 -17 2 12 2 30 0 40 -3 9 -5 -1 -4 -23z"/>
<path d="M8630 940 c0 -11 5 -20 10 -20 6 0 10 9 10 20 0 11 -4 20 -10 20 -5
0 -10 -9 -10 -20z"/>
<path d="M8327 845 c-15 -33 -16 -36 -1 -42 20 -7 34 13 34 50 0 37 -13 34
-33 -8z"/>
<path d="M6803 735 c0 -38 2 -53 4 -32 2 20 2 52 0 70 -2 17 -4 1 -4 -38z"/>
<path d="M7324 765 c-9 -14 -13 -32 -9 -42 6 -16 8 -16 26 6 10 13 19 29 19
37 0 25 -19 25 -36 -1z"/>
<path d="M7151 683 c-16 -106 -23 -247 -15 -289 l8 -39 8 45 c10 60 23 350 15
350 -3 0 -10 -30 -16 -67z"/>
<path d="M7982 680 c0 -19 2 -27 5 -17 2 9 2 25 0 35 -3 9 -5 1 -5 -18z"/>
<path d="M6361 620 c0 -40 2 -42 11 -22 8 16 8 28 0 45 -9 19 -11 17 -11 -23z"/>
<path d="M7563 634 c-3 -8 -1 -20 6 -27 8 -8 11 -4 11 16 0 30 -7 35 -17 11z"/>
<path d="M7205 547 c-10 -39 -2 -82 15 -82 11 0 15 12 15 49 0 53 -20 75 -30
33z"/>
<path d="M6790 511 c0 -12 5 -21 10 -21 6 0 10 6 10 14 0 8 -4 18 -10 21 -5 3
-10 -3 -10 -14z"/>
<path d="M8442 465 c-7 -14 -12 -31 -12 -38 1 -17 40 32 40 49 0 23 -16 16
-28 -11z"/>
<path d="M6954 415 c-3 -13 -1 -37 4 -52 9 -25 10 -23 11 25 1 56 -5 67 -15
27z"/>
<path d="M8337 409 c-9 -14 -20 -41 -24 -60 -6 -30 -5 -33 10 -21 18 15 41 76
35 94 -3 8 -11 2 -21 -13z"/>
<path d="M7182 330 c-1 -39 2 -49 8 -34 4 11 5 36 0 55 -7 31 -8 29 -8 -21z"/>
<path d="M7316 108 c-9 -34 -7 -86 3 -92 9 -6 21 40 21 85 0 34 -15 38 -24 7z"/>
<path d="M6882 53 c-15 -26 -16 -53 -2 -53 14 0 22 24 18 52 l-3 23 -13 -22z"/>
</g>
</svg>
